<svg id="Layer_1" xmlns="http://www.w3.org/2000/svg" width="1050" height="261" viewBox="0 0 1050 261"><path fill="#F5AC09" d="M-38.4561-120.2051h1200v800h-1200z"/><path opacity=".1" fill="#010102" d="M672.1533 187.5723c0 8.6709-91.0996 41.8623-312.333 41.8623-221.2358 0-312.334-33.1914-312.334-41.8623 0-8.669 624.667-8.669 624.667 0z"/><path fill="#FFF" d="M89.8462 130.497v64.6046h-2.6655V130.497H66.9585l.0918-2.3203h42.9263l.0918 2.3203H89.8462zM165.123 195.1016v-34.1768h-36.6757v34.1768h-2.7574v-66.9248h2.7574v30.5175h36.6757v-30.5175h2.6656v66.9248h-2.6656zM218.983 192.7813l-.1842 2.3203h-36.124v-66.9248h34.5615l.1836 2.3203h-32.0796v28.1972h28.0352v2.1416h-28.0352v31.9453h33.6426zM293.3628 194.2363v-68.291h-31.7842v68.291h-27.0918V35.1748h27.0918v62.9883h31.7842V35.1748h27.0908v159.0615h-27.0908zM425.4048 148.003c0 32.4482-14.292 48.7783-43.3037 48.7783-28.7979 0-43.0899-16.1182-43.0899-48.7784V35.1748h27.0909v111.9795c0 15.4814 4.4804 21.42 16.2128 21.42s15.999-5.7257 15.999-21.42V35.1748h27.0909v112.8281zM484.9194 194.2363h-40.957V35.1748h41.8105c25.8116 0 39.25 13.7856 39.25 40.2959 0 16.9663-6.1855 27.9946-16.4248 33.5088v.4238c12.3721 5.0908 20.2652 16.331 20.2652 38.8115 0 28.419-13.226 46.0215-43.9439 46.0215zm-.2129-69.3506h-14.293v43.2647h15.5723c10.0264 0 14.9327-4.4541 14.9327-22.0567 0-15.6943-4.0528-21.208-16.212-21.208zm0-63.2006h-14.079v38.1748h13.6523c10.8789 0 14.292-5.3023 14.292-19.5118 0-14.8457-4.0528-18.663-13.8653-18.663z"/><path fill="#2A1B11" d="M198.2778 24.9722c-8.4668-.9405-11.4843 8.0351-11.4843 14.0742 0 .6943-.0743 2.5693.3027 4.9443.9043 5.6992 4.1035 9.039 6.1855 9.963 0 0 1.9668 6.787 6.1934 8.1972 4.2285 1.4101 12.8457.3515 13.4414-9.8711 5.2207-3.2617 8.17-14.3203 3.1856-21.7217-5.1758-7.6865-13.0215-7.1201-17.8243-5.586z"/><path fill="#E58D57" d="M210.2466 51.186l.955 5.1446-7.6777 10.6289-8.996-10.629 1.7148-6.4413z"/><path fill="#F49C65" d="M227.0552 97.8071c-1.4043 1.3985-6.7774 2.0723-6.588-2.2246.1446-3.293.1427-10.498.7716-13.2832 2.9863-.2012 6 3.3418 7.6523 5.4707-.17 3.0156-.4336 8.6406-1.836 10.0371z"/><path fill="#E58D57" d="M173.8325 95.0415c.3867 1.9043 7.668 3.041 7.4785-1.2559-.1445-3.2949 1.7383-9.5703 1.1094-12.3554-2.9863-.2012-6.8164-.6621-8.4707 1.4687.17 3.0137-.6777 9.3828-.1172 12.1426z"/><path fill="#DBDCD4" d="M229.2563 87.7231c.3672-3.3066-.3164-9.9003-.0937-14.209.5566-10.8476-1.2324-15.6835-7.58-16.9218-4.9805-.9727-7.004-1.42-10.8907-3.1328l-7.9414 9.9082-7.7227-9.8946c-3.8222 1.6329-6.4023 2.3555-11.1582 3.293-5.5761 1.0547-9.5293 11.0918-10.5312 30.5684l9.082.4883c.625-4.8575 2.5957-10.3145 3.2402-13.9102.3125.5996.1836 2.4629.9727 5.9297.6855 3.0195 3.2129 5.3398 6.3926 5.8828l7.1054 1.2148.504-2.7324 13.9746.9531c2.2578.1524 4.2578-1.3398 4.7011-3.4687 1.0508-5.045.754-7.8086 1.422-7.9863.3437 5.1152-1.1075 7.9843-.2696 14.8379 0 0 4.2695 1.121 8.793-.8204z"/><path fill="#83CFDC" d="M221.5825 56.5923c-1.3867-.5723-2.7676-.957-4.1172-1.2774 1.8575 16.4414-8.5742 20.459-8.5742 20.459h-16.8808c-2.0215.8653-1.295-21.0527-3.6895-20.4629-1.457.3594-2.9531.793-4.4512 1.4551 0 0 1.6192 18.627 2.1778 20.6953h34.2011c.8243-3.2695 1.334-20.8691 1.334-20.8691z"/><path fill="#83CFDC" d="M193.106 57.4946a77.2444 77.2444 0 0 1-.2676-1.7812c-.0723-.5117-.1309-.9512-.1914-1.293l-.0235-.1367c-1.3691.371-2.8164.6601-4.3027 1.0254.6328 5.1152 2.043 16.5488 2.0059 16.9277-.0508.4883 12.7304 5.9258 12.7304 5.9258l7.1895-1.3828 7.2187-21.4649c-1.457-.3476-2.875-.621-4.2226-.9843l-.0235.1289c-.0488.2812-.1035.6406-.168 1.0644-1.0156 6.713-3.1894 15.6367-10.3007 15.6367-6.3223 0-8.5508-6.9609-9.6445-13.666"/><path fill="#CFC472" d="M220.768 101.1626c-1.0058.1875-10.2284 4.4727-18.0585 4.4727-7.8282 0-15.3985-3.957-16.295-4.3848-.1074-.0508-1.9453 3.041-1.9453 3.041-.0449.0781-.0332.1719.0235.2402l14.8965 18.6246s4.666.6132 8.3164-.1172l14.8496-18.3081a.2123.2123 0 0 0 .0293-.2168s-.8496-1.9649-1.8164-3.3516z"/><path fill="#CFC472" d="M241.8169 93.0571c-4.0566 1.3653-23.8106 7.082-27.2188 11.4063-5.502 6.9858-5.7578 14.4526-6.8925 18.5757 3.0957 1.2773 11.7754-.002 14.8965-1.4434 6.244-2.8867 25.0878-18.4722 26.9687-22.2944.7969-1.6192-1.2012-8.4551-7.754-6.2442zM164.9849 93.0571c-6.5528-2.211-8.5508 4.625-7.754 6.2442 1.879 3.8222 20.7247 19.4077 26.9688 22.2944 3.1211 1.4414 11.8008 2.7207 14.8965 1.4434-.5352-3.8067-2.1055-13.5723-6.8926-18.5757-3.8223-3.9942-23.1621-10.041-27.2187-11.4063z"/><path fill="#E8905A" d="M220.4556 119.293c-5.9532-.25-11.213-1.2188-13.6817-1.7403-6.1035-3.5195-40.9902-22.2085-40.9902-22.2085-6.291-1.5937-7.6035 2.8243-5.6992 6.0313 4.957 8.351 8.7129 10.7358 22.7754 12.6323 5.2285.7031 15.1347 5.252 20.5039 7.17.3593 1.1757 1.627 2.496 4.5625 2.7773 1.5586.1465 7.4726 2.875 11.6054 2.5488 2.1153-.168 4.6368-3.1152 4.668-4.42.0293-1.3046 1.375-2.5741-3.7441-2.791z"/><path fill="#242121" d="M220.4556 119.293c-1.791 7.662-11.129 3.6191-17.0918 1.8847.3593 1.1758 1.627 2.4961 4.5625 2.7774 1.5586.1465 7.4726 2.875 11.6054 2.5488 2.1153-.168 4.6368-3.1152 4.668-4.42.0293-1.3046 1.375-2.5741-3.7441-2.791z"/><path opacity=".05" fill="#010102" d="M211.3618 118.3828c-.082-.0117-.1582-.0254-.2383-.0371-.1953-.0293-.3867-.0605-.5742-.0898-.0625-.0118-.121-.0215-.1855-.0332-.1953-.0313-.3907-.0625-.5801-.0957a3.7318 3.7318 0 0 1-.1445-.0254c-.1934-.0332-.3829-.0684-.5645-.0996-.0547-.0098-.1055-.0196-.1601-.0293-.17-.0313-.338-.0625-.4981-.0918-.0723-.0137-.1387-.0274-.209-.041-.1347-.0254-.2695-.0508-.3965-.0743-.0859-.0176-.164-.0332-.246-.0508a27.6413 27.6413 0 0 1-.3028-.0605 40.1124 40.1124 0 0 1-.4883-.1016c-.9453-.5449-2.6465-1.5215-4.8379-2.7832-1.539.8125-3.0918 1.6328-3.4687 1.795-.4414.0957-1.8867.5937-3.9395 1.1464 3.297 1.297 6.4961 2.6309 8.836 3.4668.0254.082.0547.1641.0898.248a.3963.3963 0 0 1 .0215.0509c.0332.0683.0645.1386.1016.207a.294.294 0 0 1 .0214.043c.043.0742.088.1484.1387.2226.0059.0098.0117.0156.0156.0235.0547.084.1192.168.1856.248 2.0781-.8086 5.0957-2.2559 8.2402-3.7168-.08-.0117-.1562-.0215-.2363-.0332-.1953-.0293-.3906-.0586-.58-.0879z"/><path fill="#DDD380" d="M157.6177 101.1099c4.8457 9.4077 12.0918 12.849 23.287 16.1714 20.6134 6.2539 17.8595 2.5078 20.088 2.6757.3965.0293.8535.1094 1.4765.2813 1.1993-1.4082 1.9961-2.4707 2.6368-4.1875-11.123-6.0078-41.1075-23.4312-41.1075-23.4312-6.289-1.5937-8.0879 5.1817-6.3808 8.4903z"/><path opacity=".04" fill="#010102" d="M200.9927 119.957c.3965.0293.8535.1094 1.4765.2813.2793-.3281.5371-.6367.7754-.9395-18.207-5.3066-36.9922-18.0561-45.4433-24.2573-1.0117 1.9063-1.0352 4.418-.1836 6.0684 4.8457 9.4077 12.0918 12.849 23.287 16.1714 20.6134 6.2539 17.8595 2.5078 20.088 2.6757z"/><path fill="#EEEFEA" d="M200.9927 119.957c.3965.0293.8535.1094 1.4765.2813 1.1993-1.4082 1.9961-2.4707 2.6368-4.1875a161.205 161.205 0 0 1-1.1622-.6328c-.4472.9785-1.4628 2.961-2.9511 4.539z"/><path opacity=".05" fill="#010102" d="M198.4673 116.5645c-.8574.1835-5.5313 1.9003-11.088 2.5625 2.2853.6015 4.131 1.0195 5.631 1.2988 2.1289.0937 4.2636.1699 6.0585.2676.9493-.3047 1.082-.8008 1.9239-.7364.3965.0293.8535.1094 1.4765.2813 1.1993-1.4082 1.9961-2.4707 2.6368-4.1875a470.4101 470.4101 0 0 1-2.7461-1.502c-1.666.877-3.4805 1.838-3.8926 2.0157z"/><path fill="#F49C65" d="M241.7603 94.3013s-38.3223 21.5717-43.0508 23.6147c-2.6875.5781-7.1074 1.3164-12.3633 1.377-5.123.0605-3.7734 1.4863-3.7441 2.791s2.5507 4.252 4.6699 4.42c4.1308.326 10.0449-2.4024 11.6035-2.549 3.25-.3105 4.455-1.8945 4.6484-3.1484 5.002-1.9492 15.8848-6.1894 20.42-6.7988 14.0605-1.8965 19.1015-5.3218 24.0585-13.6733 1.9043-3.207.0489-7.629-6.2421-6.0332z"/><path fill="#242121" d="M186.3462 119.293c-5.123.0605-3.7734 1.4863-3.7441 2.791s2.5507 4.252 4.6699 4.42c4.1308.326 10.0449-2.4024 11.6035-2.549 3.25-.3105 4.455-1.8945 4.6484-3.1484-5.8593 1.6192-16.7343 7.1485-17.1777-1.5136z"/><path fill="#DDD380" d="M243.4517 92.6196s-29.9805 17.4234-41.1055 23.4312c.6406 1.7168 2.6172 5.6094 3.8144 7.0176.625-.1739 7.4356-1.7676 20.3868-5.7872 11.1953-3.3222 18.4453-6.7636 23.289-16.1713 1.7051-3.3086-.0918-10.084-6.3847-8.4903z"/><path opacity=".04" fill="#010102" d="M203.981 119.5527c.7402 1.4063 1.5644 2.791 2.1796 3.5157.625-.1739 7.4356-1.7676 20.3868-5.7871 11.1953-3.3223 18.4453-6.7637 23.289-16.1714.9668-1.875.8067-4.8614-.6562-6.8086-10.1114 11.957-36.004 21.9682-45.1992 25.2514z"/><path fill="#A0DBEA" d="M218.852 84.0786c1.2579-.832 2.2149-1.998 2.6211-3.543.709-2.709-.1386-5.2832-1.1543-7.1699-.2109-6.0469-.7539-17.4902-.7539-17.4902-1.621-.4922-3.2148-.8106-4.7421-1.1582-.586 3.3476-1.9004 18.002-12.0723 18.002s-11.1387-14.7657-11.709-18.041c-1.5195.3515-3.1133.6816-4.7344 1.1816 0 0-.7226 14.455-.8672 18.5214-.7617 1.75-1.252 3.9024-.664 6.1543.4238 1.625 1.461 2.832 2.8105 3.668.0606.2442.1153.459.166.623.3926 1.2833.8614 10.7618-1.6328 15.9922 12.3477 7.1329 20.041 7.5489 34.2832-.127-1.6308-3.0253-1.9726-14.2772-1.7949-15.2597.082-.4707.164-.9199.2442-1.3535z"/><path opacity=".05" fill="#010102" d="M197.1294 44.4849s-.1328 2.5351-.3672 5.0449c1.8496 1.3926 4.0977 2.7617 5.795 2.7617 1.959 0 4.496-1.5937 6.334-2.9785-.252-1.2305-.4708-2.4668-.5606-3.418-.2754-2.9082-11.2012-1.4101-11.2012-1.4101z"/><path fill="#F49C65" d="M213.7212 42.3335l-2.0879 6.9639s1.6582-.545 2.3008-1.127c.4844-.4394.6094-3.4892.6445-4.997.0098-.46-.377-.8399-.8574-.8399z"/><path opacity=".05" fill="#010102" d="M213.063 43.4722c-.4688-.0547-.957.7353-1.0899 1.7646-.1347 1.0293.1387 1.9102.6075 1.9649.4668.0566.955-.7344 1.0879-1.7647s-.1368-1.9092-.6055-1.9648z"/><path fill="#F49C65" d="M190.5376 43.1733c.0332 1.5079.1621 4.5577.6445 4.9971.6426.582 2.3008 1.127 2.3008 1.127l-2.0879-6.9639c-.4804 0-.8672.3799-.8574.8398z"/><path opacity=".05" fill="#010102" d="M191.7778 43.4722c-.4687.0556-.7402.9345-.6074 1.9648.1348 1.0303.6211 1.8213 1.0899 1.7647.4668-.0547.7382-.9356.6074-1.9649-.1348-1.0293-.6211-1.8193-1.0899-1.7646z"/><ellipse fill="#FFF" cx="213.106" cy="48.3286" rx=".5703" ry=".5449"/><ellipse fill="#FFF" cx="192.0103" cy="48.3286" rx=".5703" ry=".5449"/><path fill="#EEEFEA" d="M211.7192 55.3853s.625 1.3437-1.082 4.578c-.7715 1.459-2.1894 3.6036-3.1348 3.6036-.3242-.7266-1.0039-1.754-1.5039-2.5332-1.953-3.0352 5.7207-5.6484 5.7207-5.6484z"/><path fill="#EEEFEA" d="M202.7505 64.9653l2.916-6.1777s5.1797-3.8496 4.5234-1.914c-.3007.3105-4.9902 8.3867-7.4394 8.0917z"/><path fill="#FFF" d="M210.7935 52.7368c.0761-.1738.3418-.1523.3789.0352l.5468 2.6133s.7891 2.9277-3.5644 7.869c-.6055-2.3905-2.4883-4.4667-2.4883-4.4667s3.7637-2.9277 5.127-6.0508z"/><path fill="#EEEFEA" d="M193.7817 55.3853s-.623 1.3437 1.086 4.578c.7695 1.459 2.1875 3.916 3.1328 3.916.3262-.7265 1.0039-2.0663 1.5058-2.8456 1.9493-3.0352-5.7246-5.6484-5.7246-5.6484z"/><path fill="#EEEFEA" d="M202.7505 64.9653l-2.914-6.1777s-5.1817-3.8496-4.5216-1.914c.2989.3105 4.9883 8.3867 7.4356 8.0917z"/><path fill="#FFF" d="M195.0356 52.6587l-1.2539 2.7266s-.4609 2.9277 3.8926 7.869c.6055-2.3905 2.1621-4.4667 2.1621-4.4667s-3.6601-3.4297-4.4297-6.1074c-.0507-.17-.2968-.1836-.371-.0215z"/><path fill="#F49C65" d="M210.8599 42.309c-2.2032-1.0116-3.004-4.2831-7.6114-3.5546-2.6543.418-3.9004-1.4258-6.1191-2.9434-3.2129 1.4551-2.5566 4.4707-4.2656 5.875-.8477.6973-1.3223 1.7246-1.172 2.7842.336 2.4072.713 4.0654 1.1603 5.8076.3183 1.25 1.0214 2.3809 2.0175 3.2442 1.9414 1.6836 5.3399 4.2988 7.6875 4.2988 2.2754 0 5.338-2.1523 7.168-3.629 1.0293-.828 1.7793-1.9276 2.1523-3.166.4258-1.412.8418-2.7226 1.2012-4.7841.2852-1.6426-.6504-3.2139-2.2187-3.9326zM211.0825 92.3813c4.2578 1.3223 14.3125-.2539 16.1309 1.584 1.5273 1.545.5039 6.2871-6.3574 6.3028-1.4239.0039-7.797-.8946-13.2832-3.2618-5.4844-2.3652-4.6055-8.793 3.5097-4.625z"/><path fill="#E58D57" d="M194.0122 85.9224c-4.2559 1.3242-17.6289 4.4082-19.4453 6.2441-1.5293 1.5469-1.8613 6.7715 5.1797 5.4395 7.043-1.3301 11.5137-6.375 17.002-8.7403 5.4824-2.3652 5.3769-7.1113-2.7364-2.9433z"/><path fill="#E58D57" d="M191.6626 87.3911c2.1035-1.164 3.334-4.4824 4.209-5.584.877-1.1054 6.0644-3.2343 6.8555-3.2343.789 0 4.9785 3.2343 4.9785 3.2343l-1.5606 6.4121-4.5058-4.8925s-12.0801 5.2285-9.9766 4.0644z"/><path fill="#FFF" d="M199.7661 79.0142h6.791c.914 0 1.6582.7109 1.6582 1.5879v12.2773c0 .875-.7441 1.586-1.6582 1.586h-7.2031c-.916 0-1.2422-.711-1.2422-1.586V80.602c0-.877.7422-1.588 1.6543-1.588z"/><path fill="#242121" d="M199.7661 79.8833h6.791c.914 0 1.6582.709 1.6582 1.586V93.313c0 .877-.7441 1.586-1.6582 1.586h-7.2031c-.916 0-1.2422-.709-1.2422-1.586V81.4692c0-.877.7422-1.5859 1.6543-1.5859z"/><ellipse fill="#FFF" cx="199.8364" cy="81.4302" rx=".6504" ry=".377"/><path fill="#F49C65" d="M195.3286 83.5845c.4707-.0782 1.1797.2715 1.6152.459 1.9239.834 8.2676 4.3515 9.713 4.2285 1.6406-.1387.9492-2.164.9492-2.164-.1622-1.2032.2539-2.7833 1.2597-2.7813.5645 0 .3008 1.3535.4434 2.7402l1.2031 4.1797 1.127 4.2187s-1.5996 3.041-4.0664 2.541c-2.4668-.496-6.9297-1.369-8.8633-2.2167-1.2617-.5528-1.7774-1.8243-1.5098-2.1563.2188-.2715.1816-.6465.0156-.9492-.2539-.4668-.2578-1.0137-.0332-1.3613.1797-.2754.1895-.6075.0215-.8907-.4473-.7617-.1035-1.8183.9082-1.627 1.3184.42 2.3008 1.3536 1.957.1973-1.1484-.7832-5.1386-2.8398-5.373-3.5234-.1484-.4336-.0645-.7773.6328-.8945z"/><path fill="#181616" d="M578.0967 174.4307c16.829-3.1407 23.2851 14.543 15.6338 20.1953-7.6504 5.6533-26.085 11.9463-26.085 11.9463s-6.419 3.0048-6.9658-2.4024c-.4043-3.9922-.2705-6.0234 8.5967-14.2637 5.044-4.6865 3.8603-13.8984 8.8203-15.4755z"/><path fill="#2A1B11" d="M536.1406 153.1006c3.2588-8.0557-.745-29.0752-18.0927-23.04-10.1348.7685-23.6055 12.374-6.5801 52.5322.8398 1.9795 1.5761 16.832-8.8926 15.54 9.2627 4.044 21.6553.8467 25.3057-4.92 7.543-11.915 2.251-36.1825 8.2597-40.1122z"/><path opacity=".1" fill="#010102" d="M536.1406 153.1006c-1.6582 1.084-2.454 3.7226-2.8984 7.2158l-12.749-21.2646-2.4453-8.9913c17.3476-6.0351 21.3515 14.9844 18.0927 23.04z"/><path fill="#E9A06E" d="M524.3457 168.4434l-10.4443 26.0039 4.581 3.377 14.1533-21.5919z"/><path fill="#F5B179" d="M519.331 196.4717c1.1055-2.4238 2.0733-32.0508 2.0733-32.0508l2.75-3.3555-10.17-8.457-1.0214 5.7725c-.0938.5273.0068 1.0732.2812 1.5273l2.505 4.167s-4.1886 19.4746-5.507 24.5557c-1.1835 4.5576 1.6466 11.5156 3.0323 12.3798 1.3867.8663 4.9512-2.1152 6.0567-4.539z"/><path fill="#E9A06E" d="M513.7266 156.5771l.2578-3.9687 10.1699 8.457-2.75 3.3555s-5.3086-3.622-6.8643-5.3936c-.585-.666-.872-1.5498-.8134-2.4502z"/><path fill="#69BB3B" d="M525.956 165.8906c3.7276-4.669 7.8555-6.6914 7.8555-6.6914.5235-.9326 9.7598-6.4053 10.4492-7 0 0 12.962-9.289 18.6163 6.0742l-1.1553 1.4434s3.287 15.7178 16.375 14.7139c-2.0694 7.332-11.503 24.8564-16.8233 22.4687l-5.9287-4.8008-11.1943-3.1152-2.0205-.3711c-4.0918-.751-7.4248-3.833-8.6153-7.9639l-.6699-2.3252c.251.624-10.2724-6.3525-10.2724-6.3525s.747-2.7773 3.3838-6.08z"/><path fill="#B9BBB3" d="M549.961 205.2734l3.4384-7.3896.0479 1.1103c.0146.3272-.0362.6485-.1485.9454l-2.0781 6.7539c-.1328.458-.542.751-1.0166.7295l-27.6768-1.2168c-.6123-.0284-1.1298-.5616-1.1572-1.1924l-.0517-1.2207 28.6425 1.4804z"/><path fill="#242121" d="M522.082 204.5078l28.1045 1.2373c.213.0098.3994-.1142.4717-.3144l2.705-7.4434c.128-.3516-.1435-.7559-.5185-.7725l-25.415-1.1191c-.2178-.0088-.421.083-.5527.251l-5.4141 6.8955c-.374.4766-.001 1.2383.6191 1.2656z"/><path fill="#FFF" d="M523.2705 203.2256l5.0098-6.3818 23.3633 1.0273-2.3623 6.499z"/><g opacity=".1" fill="#010102"><path d="M527.7188 197.5586l21.085.9287-.3468.8691-21.4101-.9414zM549.6494 203.3574l-25.5996-1.126.7041-.8964 25.2275 1.1103zM536.9502 200.8389l-11.4121-.502.878-1.1191 11.3153.499z"/></g><path fill="#98260D" d="M616.3291 193.5176s.3008-1.7363 3.6045-2.419c2.0879-.4297 10.8018 2.5137 16.2607 3.7666 2.209.5069 4.1104 3.6953 4.294 4.6934.1767.956-1.6328 5.002-7.8428 3.545-6.211-1.4561-16.083-5.7442-16.083-5.7442l-.2334-3.8418z"/><path fill="#F5B179" d="M618.708 191.8447c2.6543-.4736 1.9111.2403 11.1025 2.5645 4.294 1.085 4.7803 7.7187.2999 6.8476-7.835-1.5214-7.0479-2.6142-10.458-3.328-2.628-3.1886-4.5118-5.4474-.9444-6.084z"/><path fill="#242121" d="M621.5518 198.746s2.0488-.6308 1.7978-3.662c-.25-3.0303-2.417-3.9512-2.417-3.9512s-32.7363 1.6777-47.4111 4.586c-15.9541 3.161-12.8203 8.7558-12.2305 10.8466.5899 2.0889 6.0108 4.1201 21.1875 1.6631 13.624-2.207 16.5205-5.708 39.0733-9.4824z"/><path fill="#181616" d="M620.9326 191.1328c1.4434.377 2.1934 2.7412 2.1934 2.7412-.5176-.7383-1.6602-1.5195-2.2246-1.4228-10.6035 1.8134-34.8428 9.7422-46.9727 10.0468-6.4473.1631-10.0264-.7119-11.9941-1.959 1.5722-1.7431 4.8994-3.496 11.5869-4.8203 14.6748-2.9082 45.9687-4.9648 47.4111-4.5859z"/><path fill="#98260D" d="M618.627 186.4004s.9228-2.4961 4.2265-3.1787c2.088-.4297 12.4697 3.0049 15.6387 4.5273 3.1767 2.2744 4.0908 5.1494 4.0166 6.2217-.0684.9697-1.3555 3.4727-7.5654 2.0166-6.211-1.456-16.083-5.7441-16.083-5.7441l-.2334-3.8428z"/><path fill="#F5B179" d="M621.0059 184.7266c2.6543-.4737 1.911.2422 11.1025 2.5664 4.294 1.086 4.7803 7.7177.2998 6.8476-7.835-1.5224-7.0576-3.0674-11.7842-2.3398-3.4101-1.7158-3.1855-6.4375.3819-7.0742z"/><path fill="#242121" d="M620.3545 184.8145s1.7383.8544 1.622 3.4628c-.0908 2.0586-1.0019 3.4747-1.0019 3.4747s-32.3262 8.752-47.2617 9.127c-16.2383.409-14.3135-5.7472-14.1621-7.919.1494-2.1729 4.7256-7.5508 20.0596-8.4756 13.7675-.831 17.875 1.9511 40.744.33z"/><path fill="#F5B179" d="M561.7217 159.7168s9.2373 9.9014 13.5478 23.6416c.8868 2.8242-6.1875 3.4082-8.6035.3809-3.787-4.7461-12.3535-15.4873-12.3535-15.4873l7.4092-8.5352z"/><path fill="#E9A06E" d="M563.6943 178.1758c2.2198-.3653 4.5118-.1963 6.6114.6387 1.416.5644 2.7568 1.4384 3.29 2.7802.5557 1.3955-.9463 2.836-2.8877 4.039-.0293.0177-.0605.0313-.0898.0509-1.5293-.2022-3.0586-.8262-3.9522-1.9453-1.1191-1.4034-2.6572-3.332-4.2685-5.3516l1.2968-.212z"/><path fill="#F5B179" d="M527.292 158.4365l3.209-8.3838s3.4746 5.4512 13.7597 2.1465c0 0-.9189 21.5303-7.0586 23.0723-3.8222.957-9.9101-16.835-9.9101-16.835z"/><path fill="#E9A06E" d="M528.5313 161.792c-.7647-1.9717-1.2393-3.3555-1.2393-3.3555l1.5156-3.9619 2.7207-3.3398c.874.7334 2.3594 1.6152 4.6123 1.9658.0254 3.6191-.4531 11.0273-4.3135 16.1982-.6914-1.3535-1.3496-2.794-1.9394-4.1728-.0713-1.3086-.5342-2.5166-1.3564-3.334z"/><path fill="#F5B179" d="M533.8516 146.504c.037 2.0878-1.0489 4.829-1.7998 4.8446-.752.0137-1.3907-1.666-1.4288-3.7529-.037-2.086.541-3.791 1.292-3.8047.751-.0146 1.8985.626 1.9366 2.713z"/><path fill="#F5B179" d="M528.164 165.7607c7.4258-5.2353 6.7462-12.5039 3.6192-18.1826-5.6855 3.0606-2.663-8.2402-11.29-8.5263-2.8037 9.6289-7.8926 12.9472-7.0508 15.7402.124.3838 1.8681 1.0332 2.3515 2.21.8008 1.9521 1.3858 4.1494 3.8497 5.5673 3.5654 2.0498 6.6923 4.0772 8.5205 3.1914zM575.2695 183.3584c.5547 1.3965-.9463 2.837-2.8867 4.04-3.2666 2.0235-7.0996 2.834-10.8887 2.4961l-18.2441-1.6299-.6982-4.585 22.8154-3.7392c2.2207-.3652 4.5117-.1963 6.6113.6387 1.417.5645 2.7578 1.4365 3.291 2.7793z"/><path fill="#E9A06E" d="M539.2988 196.8486c.8623-.2285 1.543-.9228 1.8467-1.791.1182-.333.2441-.6748.3506-.9238.2959-.6934-2.4024-.2129-2.5244.1855-.044.1475-.1084 2.6397.3115 2.5332a.041.041 0 0 1 .0156-.0039z"/><path fill="#F5B179" d="M532.9277 194.247l3.1592-5.0878 6.4649-5.4795s2.956 1.9912 1.287 5.4668c-.995 2.0752-2.453 3.4385-3.4736 4.21l-.3955 2.6787c-.0566.3877-.3252.705-.6865.8173l-2.6904.8272c-.5938-.0225-1.0889-.4746-1.1865-1.082l-.1465-2.464c-.335.3507-.999 1.2608-.999 1.2608s-.2667.128-.7051 2.3955c-.4395 2.2705-1.8291 1.7774-1.8291 1.7774l1.2011-5.3203z"/><path fill="#C47905" d="M736.0361 90.3076c-3.041-2.622-7.3955-4.0351-11.4345-3.954-4.0752.0292-7.71 1.452-10.1221 3.2392-2.461 1.7783-3.8184 3.8213-4.5254 5.2822-.7041 1.4795-.8564 2.3906-.8564 2.3906s-.3164 1.0908-.2559 2.7422c-.003 1.6406.545 3.8223 1.7139 5.7285 1.1484 1.914 2.8779 3.4942 4.3134 4.4043.707.4707 1.332.79 1.7442.9922.3926.1953.5166.2578.457.2168 2.3965 1.2774 2.3799 3.5274 2.4531 4.6953h-.0263c-.2276.0098-.25-.0195-.7159.0235-1.5654.2597-1.9248 1.4707-1.8876 1.9853v.5381s.3789 3.8008.4277 3.6406c.0654.5899.5195 1.0371.9482 1.1797.4317.1543.755.0586.837-.0273.037.3525.2294.6289.3876.7763.044.047.0547.047.088.0479h.249l1.661 3.4717c.169.3525.5782.6005 1.0538.6005h4.3955c.4492 0 .875-.2255 1.0547-.6005l.3447-.7198s.7627-2.4492.669-2.3671a4.0163 4.0163 0 0 0 .0556-.3848h1.2813c.0771 0 .2744-.0059.3984-.0293.2793-.04.5293-.126.7393-.2344.417-.2168.6699-.497.8242-.7373.2988-.4922.2803-.8086.2803-.8086 0 .0176.0039-.1318-.0078-.2119-.0098-.086-.0254-.21-.043-.3584-.0371-.292-.087-.6807-.1358-1.0752-.1015-.7754-.209-1.5361-.2334-1.4687-.1337-.6309-.3252-1.1456-.543-1.2598.0323-.003.0675.002.0987-.0059.3711-.0547.6426-.3808.671-.6972.0165-.0928.0028-.1153-.0255-.172-.0351-.0214-.1709-.4648-.9277-.8632-.1895-.0937-.4258-.1719-.6934-.2129-.1054-.0185-.2441-.0244-.3428-.0254.1358-.3066.2452-.6601.3233-.9765.0547-.1875.0547-.2403.0566-.3828.0332-.0694-.1123-.8624.6485-1.9356.1904-.2617.4424-.5312.7617-.7812.3369-.2754.6514-.4239 1.2793-.7676 1.128-.625 2.3047-1.4463 3.3808-2.5 2.1436-2.0899 3.8575-5.2041 3.8672-8.6778.0664-3.4492-1.5966-7.1396-4.6875-9.7197zm-9.7441 35.8233l-.1094.2304-2.872-.002-1.0254-2.1503h5.5332c-.7344.7754-1.5264 1.9219-1.5264 1.9219zm5.1445-8.0938c-.1699.1016-.3486.459-.5254 1.207-.3466 1.209-.58 2.9317-.58 2.9317-.002.044.0029.0908-.0098.1094 0 .002-.003 0-.003.002h-.036c-1.172 0-2.7384-.002-4.3087-.002l-6.3916-.004c-.0302.0079-.0918.0626-.1045.0772-.2646.3135-.3691.6103-.3808.8682-.042-.047-.1094-.0977-.1973-.165-.1758-.1339-.42-.421-.3183-.7999.3427-1.4101.578-3.4931.578-3.4931v-.545c0-.245.002-.2353.0118-.2568H721.1836c.8809 0 1.8203.002 2.7607.002 1.8819 0 3.7705.0019 5.2032.0039h1.2285c0-.04.001.0468.001-.0196a.1808.1808 0 0 1 .0224-.0039c.378-.0449.7285.0664 1.0371.088zm3.7803-10.6738c-.917.9316-1.9482 1.6445-2.9229 2.1953-.4287.2402-1.1162.5742-1.5927.957-.4912.3809-.88.789-1.1778 1.1914-1.1826 1.6446-.9668 2.9121-1.0136 2.9825.0097.1357.0752.4042.0927.4609.1162.3672.2305.6582.3428.8945h-8.958c.0117-.0918.0254-.1582.039-.2676.0235-.496.212-1.162.0557-2.121-.169-.9258-.7324-2.1094-2.0752-3.045-.413-.2861-.8173-.499-1.1787-.7236-.3681-.2393-.745-.4795-1.0918-.7559-.708-.54-1.376-1.1396-1.9463-1.7959-1.1523-1.3086-1.957-2.787-2.3623-4.1543-.414-1.3652-.502-2.6005-.4238-3.4619-.0049-.4326.0742-.7734.1065-1.0088.037-.2343.0566-.3623.0566-.3623s.0107-.1972.1142-.5586c.085-.3642.212-.8974.4893-1.5498.5195-1.3027 1.5879-3.1435 3.6553-4.7851 2.0273-1.6299 5.0898-3.0469 8.625-3.164 3.5156-.172 7.3379.9228 10.079 3.1337 2.7804 2.1709 4.339 5.3506 4.3184 8.3584.046 3.0244-1.373 5.749-3.2314 7.58zm-10.875-15.8028c-.0361 0-.7256.006-1.7178.1827-.9902.168-2.2549.583-3.3594 1.2129-1.1093.622-2.0273 1.453-2.582 2.1494-.5644.6914-.8262 1.207-.8262 1.207s-.0722.1602-.1533.4033c-.0625.251-.1748.5713-.2236.8994-.125.6524-.0908 1.2862-.0635 1.2344.1602 1.0957.6455 1.5938 1.2422.165.2334-.4091.5088-.871.753-1.2138.1288-.1758.2343-.3203.3066-.419.0879-.1015.1357-.1572.1357-.1572s.2012-.4023.627-.9512c.4345-.543 1.1425-1.1992 2.0029-1.6933.8555-.499 1.8408-.8223 2.6133-.9522.7695-.1386 1.3105-.1425 1.3369-.1416.0205-.0088.0586-.0644.0674-.082.4648-.8506.204-1.538-.082-1.7998-.0391-.046-.0489-.046-.0772-.044zM896.6875 183.2813c-.004-.088-.004-.1768-.0186-.2657-.085-.708-.5312-1.3828-1.2128-1.8095-.338-.2178-.7364-.3663-1.1495-.4463l-.9414-.1485c-.6103-.0957-1.2246-.1904-1.8418-.287-1.2382-.1925-2.4892-.3858-3.752-.583-2.5243-.3936-5.0898-.792-7.6591-1.1915l-1.9258-.2988-.9834-.1514a3.451 3.451 0 0 0-.6738-.0254 3.2184 3.2184 0 0 0-.335.0352l-.2412.037c-1.2783.2003-2.5547.3975-3.8222.5938-2.5342.3936-5.0303.7823-7.4493 1.1573-1.21.1875-2.3994.373-3.5664.5537-.583.0908-1.1591.1797-1.7314.2695-.705.08-1.5108.4482-1.9658.9805-.2412.2646-.419.5674-.5254.8838-.1133.2949-.122.7119-.1153.9023v1.3936c-.001.914-.001 1.7978-.001 2.6484 0 6.7988-.001 11.4258-.001 11.6709-.0126.2012.13.7002.1895.7764.3184.6298.8272.9707 1.2344 1.1396.4131.171.7461.1836.958.166.2149-.0283.3262-.079.3643-.1396.7842.2304 3.5762.7793 9.287 1.7803 2.336.4101 4.9024.8623 7.4405 1.3085.3819.0762.877.0391 1.1768-.0156l.955-.1318c.6358-.088 1.2647-.1758 1.8838-.2608 1.2393-.1748 2.4405-.3427 3.5645-.501 4.5107-.6415 7.8379-1.1142 7.8379-1.1142s.3193-.0498.917-.1426c.2998-.0468.67-.1025 1.1025-.1699.1094-.0185.2217-.0351.338-.0527.1015-.0147.247-.0381.4296-.0782.337-.078.6816-.2128.9961-.413.6318-.3907 1.1533-1.0703 1.2266-1.8848.0166-.2266.0097-.3477.0097-.5059v-.4658c.001-.3174.001-.6445.001-.9834v-4.5547-5.3925c.002-.958.002-1.9424.002-2.9473v-1.1397l-.002-.1962zm-1.6816 15.1982c0 .2822-.001.5537-.003.8115a1.0405 1.0405 0 0 1-.121.4512c-.1426.2685-.3897.455-.627.5537a1.696 1.696 0 0 1-.3506.1016 63.7675 63.7675 0 0 0-.4873.0761c-.5889.0918-.9043.1397-.9043.1397s-6.1065 1.0137-12.0898 2.0049c-.749.124-1.4942.249-2.2256.37-.3662.0606-.7266.1222-1.084.1807-.335.0586-.4717.0586-.834 0-1.3887-.1982-2.6709-.3828-3.75-.537-2.1563-.3077-3.501-.4952-3.2451-.4483-4.8262-.664-8.8145-1.1611-9.7793-1.1729-.0137-.0224-.0244-.0449-.0479-.0664-.1425-.1406-.4267-.3173-.6396-.5732-.2197-.249-.3506-.5674-.3565-.837.001-.2089.001-.2294.001-.3339v-15.8535c.003-.1113.0049-.1563.0195-.2363a1.013 1.013 0 0 1 .1739-.4073c.1777-.252.4717-.4492.8125-.5234.541-.086 1.0869-.1729 1.6406-.2598 1.1504-.1797 2.3232-.3613 3.5156-.5469 2.3858-.37 4.8467-.7529 7.3457-1.1416 1.249-.1943 2.5069-.3886 3.7705-.585l.4737-.0732c.162-.0253.3242-.0537.3994-.0586.1943-.0195.3642.0147.7304.0723l1.8995.295c5.039.785 10.0673 1.5673 14.7783 2.3007.3545.087.665.2998.83.5791.083.1387.1387.289.1505.4424l.0039.3184v14.957zm-11.167-12.0762c.038-.0674.0674-.1914.0625-.3965-.0215-.2158-.0977-.5322-.3936-.8603-.2861-.3242-.8213-.671-1.5928-.7207-2.9775-.2207-7.2109-.3692-7.2109-.3692h-4.0684c-1.2216 0-2.6474 0-4.1777-.002-.3828 0-.7705 0-1.165-.0009l-.6182.004c-.2842.0028-.5713.0527-.8437.1347-1.1055.3047-1.9004 1.3222-1.8467 2.29-.001 2.8028-.002 5.6172-.002 7.749-.001.5303-.001 1.0215-.001 1.458.004.2364-.0127.376.0147.6876.0342.2734.122.5185.2305.7285.4707.8476 1.1523 1.0654 1.1806 1.1006.085.0332.2696.0625.3086.0634.5488.0157.836-.1367.9668-.2695.0654-.0674.0967-.1348.1055-.1992.2148.1064.9619.2187 2.4922.33 2.4912.2217 6.0449.3682 6.0449.3682s1.3623.001 3.4121.002c1.0244 0 2.2197 0 3.503.001h.9775c.3506-.0108.5957.0273 1.1396-.0352.963-.1309 1.8242-.7393 2.1455-1.543.1836-.3945.1621-.875.1612-1.1103v-.875c0-.5791.001-1.1504.001-1.7051 0-1.1064 0-2.1426.0019-3.0352 0-1.788.001-3.0048.001-3.0693-.0078-.0459-.0557-.1367-.0694-.1572-.2754-.3955-.5322-.5508-.7597-.5684zm-.8174.5967c-.042.0635-.042.081-.042.129v9c-.0059.083-.0088.165-.039.243-.0919.3135-.4034.5772-.7647.6553-.0889.0235-.1826.0274-.2764.0323h-8.2676s-6.542.2422-6.2695.2734c-1.294.085-2.3594.206-2.5977.3438-.0048-.0205-.001-.043-.0107-.0616-.1162-.2343-.3476-.4404-.4512-.6015-.0283-.0508-.042-.0537-.0761-.0713-.0078-.0137-.2774-.0977-.458-.4248-.0977-.1797-.1075-.294-.1006-.8008v-9.0781c.001-.2022-.003-.296.0195-.3848a.9922.9922 0 0 1 .1123-.2715 1.0493 1.0493 0 0 1 .4815-.3906c.0996-.044.206-.0723.3154-.084.0556-.0107.1045-.0058.1719-.0107h9.5703s7.7998-.2412 7.4746-.2725c.6191-.0635 1.1328.1846 1.4267.4893.294.2949.376.5966.461.705-.3096.0528-.5518.3418-.6797.5811zm4.4453 2.249c.0342.0088.0371.0069.0478 0l1.8125-1.5537.5762.4942s1.165.7236 1.1436.6689c.5146.248.9844.289.541-.4414-.2383-.4522-.6846-1.002-.6846-1.002l-1.1015-.9453-.001-.001c-.2617-.2246-.6865-.2246-.9483.001l-2.2949 1.96c-.0049.0107.0069.0488.0108.0586.2226.5127.6836.7119.8984.7607zm3.7207 3.9834c-.0342-.0088-.0371-.0068-.0469 0l-1.8135 1.5537-.578-.4931s-1.1622-.7246-1.1417-.671c-.5156-.248-.9863-.289-.54.4405.2373.4531.6846 1.003.6846 1.003l1.1005.9452.001.002c.2617.2227.6865.2227.9483-.002l2.293-1.96c.0048-.0107-.006-.0478-.0098-.0575-.2237-.5137-.6836-.713-.8975-.7608zm-19.9893-5.4316l-4.0058-.001c-.0225.003-.0654.0264-.0762.0322-.499.3496-.1953.6426.0137.7578.0312.0196.039.0196.0625.0196h3.5332v3.7851s.1572 2.2871.1777 2.1924c.1123.915.3203 1.5059.5235.0283.1435-.871.2402-2.1132.2402-2.1132l.001-4.297c0-.2226-.211-.4042-.4698-.4042zm7.172 0l-3.9122-.001c-.0351.003-.1035.0264-.1191.0322-.793.3496-.3116.6426.0205.7578.0488.0196.0625.0196.0986.0196h3.4404v2.2754h-3.746c-.2598 0-.4727.1816-.4727.4062v2.0293s.0254.5635.0576 1.2442l.001.0283v.001c.0078.1884.1943.3359.414.328 1.207-.041 2.708-.0937 2.6016-.1044 1.6953-.0967 2.788-.2744.0537-.4473-.7002-.0537-1.5234-.0996-2.2275-.1338.0244-.455.042-.746.042-.746v-1.797l3.748.001c.2598 0 .4707-.1806.4707-.4033l.001-3.086c0-.2226-.21-.4042-.4717-.4042zM36.523 4.728l-.0167-.018c-.2763-.2906-.5771-.606-.8945-.941-1.4053-1.4917-3.0215-3.1777-4.5547-4.766.2832-.046.505-.2354.627-.3931.039-.0435.039-.0552.039-.0884v-8.498c0-.442-.3681-.8008-.8203-.8008h-3.9863c-.455 0-.8223.3588-.8223.8007v.3413s.2735 3.8194.3086 3.6592c.0098.0777.0205.1524.0313.2256a2501.6595 2501.6595 0 0 0-1.1358-1.1611L18.2036-13.86l-.003-.0029c-.3193-.31-.8359-.309-1.1523.0034L-1.5483 4.3867c-.1465.145-.2393.3443-.2393.564.001.4409.3682.7978.8203.7978l4.1485.001-.001 12.455c.0068.13.0527.3893.0664.444.3222 1.3574.621 1.7143.875 1.5903.3662.1113 1.377.227 3.3222.3427 3.3946.2437 8.2354.4073 8.2354.4073l15.6104.0049c.4521 0 .8183-.359.8173-.7984l.004-14.1543c-.006-.0718-.0538-.2134-.0665-.2431-.1933-.4454-.3779-.6895-.5488-.8052.584.0967 2.0576.1982 4.7627.2978a.348.348 0 0 0 .247-.0898.3287.3287 0 0 0 .0176-.4727zM27.311-5.9268c.1973-1.142.3409-2.6523.3955-3.2539h2.378l-.003 7.1758a1220.608 1220.608 0 0 0-2.9345-3.017c.0547-.2276.1093-.52.164-.9049zM31.2183 4.916c-.3243.042-.5772.5313-.709.9229-.041.0986-.041.1264-.041.2021v13.3535h-14.373s-8.9112.2657-8.5391.3018c-1.4112.0737-2.6143.1748-3.209.2905.1924-.335.3427-.9165.4355-1.4155.039-.1787.039-.2295.04-.3667V4.9506c0-.4423-.3671-.8007-.8222-.8007H1.0063l16.6202-16.313L23.602-6.31S35.2778 4.7461 34.8228 4.251c.1093.1007.2109.194.3183.292-2.4512.1026-4.0976.233-3.9228.3731zM16.5747-.1875c-1.498.4336-2.5996 1.8896-2.5586 3.418-.0176 1.3486.8906 2.5893 2.1074 3.1342l-1.4912 8.2012a.6117.6117 0 0 0-.0088.1123c0 .353.293.6411.6553.6392l3.6943.002c.0694-.006.2051-.042.2334-.0528.7051-.25.8838-.481.8213-.6763.0362-.3222-.0312-1.2426-.2597-3.044-.1944-1.684-.4795-3.7494-.6827-5.202.3907-.1563.6915-.3467.8985-.5089.291-.2255.42-.3818.42-.3818 1.0634-1.1445 1.1425-2.975.2587-4.2241-.8506-1.2783-2.5986-1.8853-4.0879-1.417zm3.0264 4.5703s-.088.1548-.296.3726c-.205.2168-.5605.48-1.037.6289l-.041.0127c-.2774.0884-.4483.3672-.3868.6518.4893 2.3238 1.2159 5.7447 1.1934 5.521.2734 1.1778.5361 2.1953.7246 2.7403-.1738-.1026-.3926-.187-.5918-.2413-.0928-.0302-.121-.0302-.1934-.0322h-2.911l1.4501-7.9775.001-.0098c.0576-.3193-.1445-.6343-.4717-.7187-.956-.2486-1.6904-1.0977-1.711-2.0381-.0566-.9468.5723-1.8838 1.4883-2.2075.9053-.3487 2.0108-.066 2.6202.6772.621.7246.708 1.8496.162 2.6206zM107.5024 23.0938c-.3847-.1578-.812-.2466-1.2417-.2584l-.932-.0043H99.811c-2.4907 0-5.022 0-7.5566-.001h-5.6875c-.3242.0073-.5767-.0215-1.086.0327-.4482.0566-.8803.1982-1.2558.4082-.7612.4175-1.2822 1.124-1.4077 1.8828-.0581.4307-.0264.6362-.0347.9097v.789c-.0015 1.0484-.0015 2.083-.0015 3.104 0 4.0796-.001 7.9-.001 11.1939 0 3.2934 0 6.06-.0004 8.0337.0185 1.999-.046 3.0708.058 3.4292.0499.2475.3224.6743.3995.7495.4839.5571 1.0723.7915 1.5151.8789.4512.0894.7793.0366.982-.023.2016-.0727.2978-.1494.3232-.2246.7969.124 3.5747.2535 9.2285.3814 2.3199.0552 4.8594.1162 7.3697.1743l1.8847.0396.9317.017c.3398-.0014.5424.025 1.0024.001.8193-.062 1.584-.4365 2.0689-.9756.2426-.27.4213-.5796.5224-.9028.1089-.3193.1089-.6885.1123-.8882.0796-3.7949.1377-6.5908.1377-6.5908s.001-4.3022.001-10.771v-5.2227-3.5888c.0098-.2427-.0278-.6821-.168-.997-.2685-.6832-.8696-1.2657-1.6465-1.5768zm-22.769 2.5444c-.0098-.379.1118-.605.3584-.8345.2725-.2114.5303-.3174.9936-.3066h5.609c4.9658.0024 9.9252.0039 14.5688.0053.3232.024.624.1626.8281.374a.993.993 0 0 1 .2256.356c.0205.0645.0361.1294.0459.1973.003.0566.0107.1323.0078.273v18.5825s.0195 1.2265.0498 3.063h-16.732s-5.1059.223-4.892.2524c-.3902.0307-.753.0654-1.063.104V25.6382zm22.7197 26.7715c-.104.3745-.4624.7021-.9062.8242-.1118.0264-.2256.0503-.3438.0522l-.5234.0108c-.3667.0039-.7315.0097-1.0933.0136-.7236.0103-1.4311.019-2.1152.0284-1.3652.018-2.627.0361-3.69.0503-2.122.0312-3.4423.0551-3.1899.0654-4.7436.0957-8.6538.2344-9.5767.3926-.017-.022-.0327-.046-.0605-.0674-.1606-.1382-.4575-.2793-.6885-.4985-.2368-.208-.4048-.4815-.454-.7193-.024-.1377-.0274-.169-.0557-.2666-.0372.125-.0157-1.1504-.0225-3.0727v-.9873c.27.0341.5991.0693.999.1035 1.9444.2036 4.7193.3408 4.7193.3408s14.8222.0049 16.9907.0049c.0102.6596.0215 1.352.0337 2.0874.0049.2988.0093.604.0141.9111l.005.4424c0 .0957-.0108.1924-.042.2842zm-8.7817-1.8482c-.414-.2046-1.0054-.3408-1.0054-.3408l-3.6792-.0059c-.0083.0059-.0268.0435-.0303.0552-.2026.5747-.0805 1.0591.0069 1.248.0112.0333.0137.0333.0234.0333h3.628s1.0888-.2237 1.0434-.253c.4356-.1582.7173-.4536.0132-.7368zm23.0307-30.1509a431.6361 431.6361 0 0 0-.2905-.9326c-.1006-.2275-.1592-.3589-.1592-.3589s-.3999-.8144-1.2524-1.9209c-.8647-1.0957-2.2754-2.4218-3.9956-3.4194-1.7075-1.0102-3.6856-1.665-5.229-1.9331-1.544-.2832-2.623-.2905-2.6782-.292-.042.0059-.1245.0493-.1421.0615-.9224.6822-.3462 1.3116-.0362 1.5625.0489.0415.061.042.0977.0445.0503-.001.978.0083 2.3062.247 1.3271.2251 3.02.7881 4.5004 1.6377 1.4873.8438 2.7261 1.9712 3.4668 2.9136.378.4663.6504.8794.8428 1.1665.1665.2974.2627.4683.2627.4683s.1445.1958.3291.502c.1548.3158.419.723.5903 1.1547.3907.855.589 1.7505.6055 1.6685.2368.7353.3838 1.371.5986 1.5034.1822.1333.422-.2383.4825-1.5718.0376-.7876-.0909-1.752-.2994-2.5015zm-5.1938.8296c-.0586-.1523-.0903-.2378-.0903-.2378s-.2603-.5293-.8145-1.2465c-.5605-.711-1.475-1.5723-2.5913-2.2198-1.1084-.6577-2.3926-1.0815-3.3935-1.2573-1.003-.184-1.7037-.1894-1.7408-.1894-.0258.0053-.079.0517-.0918.064-.5971.6943-.2182 1.3158-.044 1.561.027.041.0362.041.0582.0434.0293-.001.583.0044 1.3765.1455.7915.1348 1.8037.4727 2.688.98.8881.5034 1.6274 1.1777 2.0703 1.7407.4511.5596.661.9776.661.9776s.0919.1123.216.2924c.1015.1851.2777.4244.3969.6792.27.5059.4248 1.0464.4438.9961.3199.8658.7954 1.609 1.0777-.0859.078-.5073.0376-1.1362-.0679-1.6304-.064-.2558-.1177-.4668-.1543-.6128zM88.3115 37.4561h2.122l-.0014 4.5752c.0064.0463.0498.1396.063.1577.275.4306.5288.5727.7515.5678.1953.0992.857.2032 2.208.3042.2812.024.5644.0479.854.0713h.0024c.2261.019.4283-.124.4493-.3193l.0083-.0737c.1123-1.0455.2016-2.1851.2558-2.9205l2.0689.001-.001 2.9195c0 .3671.3481.6645.7778.6645l3.0244.0015c.4283 0 .7774-.2979.7774-.666l.002-5.2818 1.3935.0005c.0493-.0039.1435-.043.162-.0542.8936-.4717.6075-.8809.2242-1.1172-.246-.293-.6289-.7036-1.1929-1.269-1.6064-1.6685-4.0263-3.939-4.0263-3.939l-1.6397-1.4072-.0024-.003c-.3027-.2582-.795-.2558-1.0967.003l-7.7353 6.6494c-.1397.1206-.2266.288-.2266.4702 0 .3667.3481.665.7778.665zm7.7344-6.3697l.8687.7451s4.8461 3.8443 4.6752 3.6563c.312.232.607.4453.8785.6343h-1.5738c-.4326 0-.7827.2993-.7827.669v5.2807h-1.461v-2.9146c0-.37-.35-.6684-.7807-.6684h-2.9775s-.2232.0083-.584.0224l-.0708.002h-.0024c-.397.0176-.7012.3061-.6822.644.044.7315.1236 2.1333.1812 3.1446-.1568.0102-.2403.0166-.2085.0214-.7261.0489-1.3716.1133-1.8013.1851.0977-.1074.1763-.2339.232-.3457.0385-.0645.0385-.0825.0385-.1314V36.791c0-.3696-.351-.669-.7817-.669h-1.0225l5.855-5.0356zM796.5098 146.252c.5214-.2823.996-.4141 1.335-.4854.3427-.0596.5488-.0908.5693-.083.0302-.0088.085-.0645.0976-.08.6836-.8243.2988-1.4669-.1181-1.7013-.0547-.041-.0694-.041-.1114-.038-.0273-.0059-.29.0273-.7265.1084a6.4679 6.4679 0 0 0-1.71.6132c-1.3496.6543-2.9023 2.1885-3.625 4.2315-.7676 2.0244-.6289 4.3174-.0996 5.8193.2373.7695.5635 1.3457.7861 1.7442l.3975.5937s.79.998 1.8076 1.5752c.9941.622 2.0781.8213 1.9883.7686.8984.164 1.6308-.0118 1.7685-.1739.0723-.0879.002-.1797-.2402-.291-.2422-.1064-.6602-.2226-1.25-.496-.6934-.3311-1.4355-.875-1.9277-1.4063-.501-.5225-.7774-.9864-.7774-.9864s-.1308-.1543-.3222-.457c-.1993-.2969-.4454-.7539-.6563-1.3437-.4433-1.1621-.5732-2.9746.001-4.5645.543-1.6094 1.7588-2.834 2.8135-3.3476zm2.2949 22.8457l-3.0479-7.2051c-.1777-.416-.6142-.627-1.0117-.4697l-6.8486 2.7392 2.4472-7.666c.1368-.4346-.038-.9277-.418-1.1309l-6.5751-3.4843 6.5752-3.4844c.372-.1992.5605-.6875.418-1.1319l-2.256-7.0683s-.0878-.2598-.2401-.706c2.1982.8232 4.9306 1.8486 6.9736 2.6152l.0244.0097c.2793.1016.5898-.0449.711-.3525.7802-1.9512 1.3144-3.3027 1.2206-3.1104 2.3868-6.1494 3.714-10.227-.7334-.623-.4062.8701-.835 1.791-1.2675 2.7187-3.1133-1.3574-6.2442-2.7216-7.9659-3.4736a.6914.6914 0 0 0-.5195-.0146c-.3994.1484-.6162.6338-.4834 1.082l.0127.04.503 1.6905 2.244 7.0322-7.4687 3.956c-.162.086-.3007.2344-.3857.4317-.1904.4531-.0176.9941.3857 1.209l7.4659 3.957-2.7813 8.705a1.026 1.026 0 0 0 0 .6134c.1514.4746.6172.7207 1.04.5527l7.7754-3.1104 2.7315 6.458c.0586.1211.205.3438.2402.3907 1.832 2.498 1.6416.5 1.3467-.8028-.038-.1894-.0566-.2363-.1123-.3671zm20.0762-8.2754c-.0166-.0606-.0264-.0684-.0547-.086-.0762-.0488-2.833-1.83-5.5137-3.5664l1.1982-.3574s2.88-1.1787 2.748-1.1816c1.132-.5625 1.7999-1.1817-.1972-.9844-1.1885.0683-2.834.3691-2.834.3691l-2.9072.8692c-1.7412-1.126-3.0996-2.004-3.0996-2.004s-3.3174-1.793-3.2021-1.6718c-.255-.1192-.4971-.2217-.711-.2998v-.1904c.1768-.0645.376-.1465.6143-.252 1.335-.543 3.1474-1.498 3.1474-1.498l3.2422-2.0918 6.4082 1.9257c.0283 0 .087-.037.1016-.0468.7334-.5918.5527-1.332.3799-1.6524-.0235-.0527-.0332-.0547-.0596-.0635l-4.836-1.4502c2.6993-1.7421 5.4483-3.5185 5.5235-3.5664.0225-.0234.0518-.1005.0557-.121.245-1.0655-.4121-1.4063-.7774-1.4669-.0566-.0146-.0664-.0078-.0937.0098-.0762.0479-2.833 1.83-5.5166 3.5654l.3213-1.3437s.5263-3.3838.4609-3.2549c.1289-1.3789-.0156-2.3379-.8613-.3027-.541 1.1875-1.1319 2.9336-1.1319 2.9336l-.7802 3.2529c-1.7413 1.126-3.0997 2.003-3.0997 2.003s-3.0468 2.3202-2.8945 2.2695c-.0703.0605-.1387.1191-.204.1777v-7.5068l-.0499-1.5069c.5723-.2715 1.2236-.7558 1.2236-.7558s3.6026-4.0235 3.6524-4.0801c.0049-.0147-.0108-.0723-.0156-.086-.295-.7832-.836-1.1132-1.084-1.2001-.04-.0186-.043-.0147-.0537-.004-.0498.0567-3.5967 4.0284-3.5967 4.0284s-.082.1308-.1895.3047c-.078-2.2442-.1728-4.7764-.1943-4.582-.1934-3.296-.5527-5.4205-.9004-.1055-.248 3.1347-.415 7.6025-.415 7.6025l-.0069 27.8018c.0069.0664.0528.2011.0655.2304.7021 1.541 1.294.6055 1.5244-.041.04-.0937.04-.1191.04-.1894v-6.6153c1.04 1.1621 2.3457 2.625 2.3457 2.625s1.2725.9942 1.253.916c.5683.3301 1.1035.3575.6494-.6992-.2354-.6562-.7041-1.4473-.7041-1.4473s-2.9688-3.328-3.544-3.9746v-8.6054c.0713.0644.1397.127.2217.2011 1.086 1.0225 2.7305 2.3028 2.7305 2.3028s1.4287.9228 3.2422 2.0967l1.7148 7.1777c.0137.0244.0703.0654.086.0723.8251.416 1.3076-.13 1.4687-.457.0283-.0499.0264-.0587.0205-.087l-1.2979-5.416c2.6973 1.7441 5.4424 3.5225 5.5166 3.5703.0303.0098.1055-.002.123-.0059.9464-.2949.882-1.1015.7472-1.4882zM340.249 398.9736c-.0483-.3965-.417-.6797-.8227-.6298h-.0093c-2.2793.2724-4.624.0488-6.7466-.8145-2.1167-.8145-4.0893-2.2295-5.5083-3.8887a.898.898 0 0 0-.0957-.0918c-.3237-.2695-.8096-.2285-1.0845.0899-1.4267 1.6601-3.4048 3.0722-5.5234 3.8877-2.1265.8642-4.4746 1.0888-6.7559.8154l-.0131-.002a.6643.6643 0 0 0-.088-.0058c-.4096 0-.7407.3262-.7407.7275l.0025 7.499c.0088 2.589.5122 5.172 1.456 7.586.9405 2.417 2.3394 4.662 4.105 6.586.8897 1.0165 1.8994 1.7802 2.8604 2.5995l2.913 2.4453c.1294.0997.4024.2735.462.3086 1.5058.879 2.0107.9473 2.0234.6592.606-.3701 2.4048-1.7392 5.9219-4.5547 1.5-1.1289 2.9453-2.7383 4.106-4.454 1.167-1.7325 2.0497-3.628 2.5864-5.381.5498-1.75.789-3.3398.877-4.4745.056-.5664.0502-1.0235.0707-1.334.0059-.3047.0098-.4698.0098-.4698v-7.0156a.7736.7736 0 0 0-.0059-.0879zm-1.5146 9.1524c-.0991 1.7392-.5738 4.04-1.46 6.1748s-2.1753 4.0683-3.2744 5.3281c-1.066 1.2715-1.9258 1.92-1.7598 1.8047-2.6963 2.376-4.9253 4.3984-5.5927 5.1289-.1436-.3926-.6768-1.0488-1.146-1.5664-.148-.17-.1944-.209-.3238-.3193l-2.898-2.4317c-.9628-.8174-1.9765-1.5937-2.747-2.4853-1.6455-1.792-2.9468-3.8848-3.8237-6.1368-.8809-2.25-1.3501-4.6562-1.3594-7.0673l-.002-6.6914c2.255.1591 4.5684-.1348 6.6641-.9873 2.1167-.836 3.9776-2.0957 5.5591-3.7452 1.5747 1.6495 3.4336 2.9121 5.5459 3.7471 2.0928.8516 4.4038 1.1445 6.6553.9854v5.3076s.0039.3027.0092.83c.002.5391.0225 1.249-.0468 2.124zm-7.2232-1.8301c-1.1816.9482-2.7392 2.413-2.7392 2.413l-5.0303 5.4493-2.0732-3.2715c-.023-.0234-.0938-.0547-.1104-.0605-.937-.2871-1.1577.3691-1.1728.7363-.006.0566 0 .0664.019.0957l2.5952 4.0898a.7784.7784 0 0 0 .1328.1563c.3047.2695.7759.246 1.0508-.0537l5.565-6.0322s2.4755-3.045 2.3393-2.9454c.9346-1.2714 1.376-2.2324-.5762-.5771zM970.5938 220.5713c-.0538-.4229-.46-.7246-.9073-.6719h-.0107c-2.5127.291-5.0977.0527-7.4375-.8682-2.334-.8681-4.5088-2.376-6.0733-4.1455a1.007 1.007 0 0 0-.1054-.0976c-.3565-.2871-.8926-.2432-1.1953.0957-1.5733 1.7695-3.754 3.2754-6.0899 4.1445-2.3437.921-4.9336 1.1602-7.4482.8692l-.0147-.002a.8027.8027 0 0 0-.0967-.0059c-.4511 0-.8164.3477-.8164.7754l.002 7.9942c.0107 2.7588.5654 5.5117 1.6064 8.086 1.0362 2.576 2.5782 4.9696 4.5244 7.0194.9815 1.084 2.0948 1.8985 3.1543 2.7715l3.212 2.6065c.1425.1064.4433.292.5087.329 1.6602.9376 2.2168 1.0098 2.2305.7032.668-.3945 2.6514-1.8545 6.5293-4.8555 1.6533-1.203 3.247-2.919 4.5274-4.748 1.286-1.8457 2.2587-3.8672 2.8505-5.7354.6065-1.8662.8702-3.5605.9668-4.7695.0625-.6045.0557-1.0908.0782-1.4228.0068-.3243.0107-.5.0107-.5v-7.4786a.767.767 0 0 0-.0059-.0937zm-1.67 9.7558c-.1093 1.8545-.6328 4.3067-1.6103 6.582s-2.3975 4.336-3.6094 5.6798c-1.1758 1.3554-2.124 2.0468-1.9404 1.9238-2.9727 2.5322-5.4297 4.6885-6.166 5.4668-.1582-.418-.7461-1.1182-1.2637-1.67-.1621-.1806-.2139-.2226-.3565-.3398l-3.1953-2.5918c-1.0615-.871-2.1787-1.6992-3.0283-2.6494-1.8144-1.9101-3.249-4.1416-4.2158-6.542-.9707-2.3984-1.4883-4.9629-1.499-7.5332l-.002-7.1328c2.4863.17 5.0361-.1435 7.3477-1.0527 2.333-.8907 4.3847-2.2344 6.1289-3.9922 1.7353 1.7588 3.7851 3.1045 6.1142 3.9941 2.3067.9082 4.8545 1.2207 7.337 1.0508v5.6572s.0038.3233.0107.8858c.002.5742.0244 1.331-.0518 2.2636zm-7.9638-1.9511c-1.3028 1.0107-3.0205 2.5722-3.0205 2.5722l-5.545 5.8086-2.2861-3.4863c-.0254-.0254-.1035-.0586-.122-.0644-1.0323-.3057-1.2764.3925-1.292.7851-.0069.0596 0 .0703.0204.1016l2.8614 4.3593a.8056.8056 0 0 0 .1465.166c.3359.2872.8554.2628 1.1582-.0566l6.1347-6.4306s2.7295-3.2461 2.5791-3.1397c1.0313-1.3555 1.5176-2.3789-.6347-.6152zM42.4346 84.4116c-1.2534-.2397-2.3179-.44-3.2417-.5703-1.0122-.0752-1.5537.3677-1.6773.5361-.0263-.0166-.038-.0454-.0718-.0566-.1777-.0664-.437-.061-.7182-.0161a2.692 2.692 0 0 1-.6016-.0274c-.0957-.0224-.1177-.0214-.1826-.0127a1.362 1.362 0 0 1-.289 0c-.0919-.0087-.1714-.0278-.3707-.0761l-1.0205-.2432-1.6601-.3955c.1733-.5195.351-1.0459.5195-1.5503.0737-.232.1411-.398.2188-.6792.0795-.291.106-.5942.0732-.8906-.06-.5923-.3403-1.147-.7607-1.5728-.4131-.4287-.9859-.7231-1.54-.8603-.4137-.105-.8082-.2066-1.1817-.3023-.748-.1914-1.4107-.3593-1.963-.501l-1.7626-.4467s-2.5425-.5962-6.5947-1.5469v-6.5835h3.5805c.2305.0034.5454-.003.8726-.0264a6.1788 6.1788 0 0 0 .936-.1709c1.2246-.3315 2.2842-1.0918 2.9121-2.0805.315-.4932.524-1.042.6084-1.6045.081-.6104.042-1.024.0508-1.482v-.0165c0-.4878-.4429-.8824-.9907-.8824h-.3218s-4.1743.0933-8.2715.1856c-4.0757.1084-7.9917.229-7.6323.2407-3.2207.1411-5.7485.252-6.2192.3735-.0337-.0136-.0537-.043-.0948-.0483-.123.0127-.3198.2183-.4838.6182-.1568.4506-.2344.7744-.2364 1.1484-.016.2104.0132.2646.0537.417.5225 1.8545 2.5025 3.2637 4.6465 3.3183l4.1358.0079v5.0727c-2.3448-.5503-4.8853-1.146-7.5791-1.7773l-.7203-.1695c-.291-.0688-.6899-.1255-1.0415-.1089-.726.0308-1.4399.2754-1.9975.7012-.5513.396-.9653 1.0884-1.082 1.6074-.1338.4434-.2671.8887-.4029 1.335-.538 1.789-1.086 3.606-1.6328 5.4258a25144.971 25144.971 0 0 1-1.648 5.5156c-.2831 1.337.6202 2.7422 2.0196 3.2149.3877.1289.606.1616.852.224l.7359.173c.4897.1147.9746.228 1.4575.3417 3.8545.9033 7.4663 1.7495 10.5767 2.4795l10.684 2.5049c.1622.0303.4947.0557.565.0571 1.4648.041 2.085-.0976 2.2158-.3178.1919.0805.56.1909 1.15.1005.6132-.085 1.5902-.5669 1.915-1.6318.182-.5215.3872-1.107.6122-1.7505l3.1163.7432c.3066.0659.474.167.6552.329.0826.0797.1524.1685.2041.2662l.2681.5244c.2783.5386.7607.9893 1.352 1.2622.6915.2905 1.0337.29 1.4747.4195 0 0 .8686.187 2.1547.4628l.0479.0103c.5005.107 1.0024-.1665 1.121-.6113.9044-3.3316 2.6515-9.8086 2.5094-9.4497.042-.1675.082-.3355.123-.499l.0132-.0504v-.0024c.0674-.2754-.1294-.5464-.4404-.605zM6.3247 64.8213c-.0268-.0527-.124-.2359-.1499-.2852-.1587-.2539-.2412-.4731-.3765-.5634a2.5085 2.5085 0 0 1-.3545-.4307c-.0966-.123-.122-.211-.1542-.2764.6347.0987 2.5996.2095 6.4604.3511 3.1587.1245 6.8403.2695 9.749.3843 2.9112.082 5.041.1426 5.041.1426h.005c-.028.5-.1163.8984-.3853 1.3095-.3765.5948-1.0181 1.0542-1.7495 1.253a4.2462 4.2462 0 0 1-.563.1015c-.1826.0103-.378.02-.6568.0156h-4.5918c-.5537 0-1.0044.4-1.0044.8936l-.0005 6.9946v3.4971l-.0019.4209c-.0049.0806-.0132.1602-.0361.2363-.041.1533-.123.2984-.2344.4229-.2305.2485-.5767.396-.9385.397-.3618-.001-.706-.1495-.9375-.3975-.1123-.125-.1919-.269-.2339-.4224-.0244-.0766-.0312-.1557-.0361-.2363l-.0015-.4209.001-3.497.0005-6.9947c0-.4961-.4517-.8984-1.0078-.8984l-5.0571-.0079c-1.2803-.0297-2.4766-.8798-2.7857-1.9892zm23.0938 24.6074c-.2247.8692-.443 1.7046-.6465 2.4878-.2285.7612-.2945 1.5474-.5855 1.9375-.3037.4487-.788.6968-1.1836.791-.3725.0967-.6587.0816-.8344.0889-.105-.3609-1.0474-.8438-1.8374-1.1704-.21-.0943-.2706-.1084-.4405-.149-.226-.0532-4.4048-1.0317-10.543-2.4707-3.0707-.7197-6.6298-1.5537-10.4326-2.4448-.9502-.2221-1.9165-.4487-2.8916-.6777-.6005-.1192-1.0039-.5947-.999-1.1113.0073-.1578.0059-.1851.0879-.4483l.2017-.6665.4008-1.3384.8116-2.6894c.5405-1.7935 1.0786-3.5855 1.6098-5.3487.1333-.4414.2661-.8798.3975-1.3168l.1948-.647c.0386-.122.0996-.2349.1773-.338.1533-.2074.3964-.3583.6562-.4374.2954-.0718.4732-.0845.8794.019 3.1406.7359 6.0742 1.4234 8.7144 2.0415v2.6685l.0024.4536c.0068.211.0332.4233.0923.6299.1138.413.332.8027.6323 1.1318.5977.6582 1.546 1.061 2.5 1.0562.9541.0049 1.9028-.398 2.5-1.0562.3003-.329.5195-.7187.6333-1.1318.0591-.2066.0864-.419.0928-.6299l.001-.4536v-1.1558c3.2119.7535 5.1694 1.212 5.1694 1.212s1.225.267 3.0498.6655l3.0034.663c.3325.1036.6284.3375.7886.645.0796.153.1245.3214.1318.4918.005.1792-.0263.3052-.1137.6137-1.192 4.2667-2.352 8.443-2.2207 8.085zm9.252 4.311c-.3922-.1044-.6246-.166-.6246-.166l-1.3237-.3159c-.373-.0796-.479-.1572-.6612-.3232-.0859-.0982-.1108-.123-.2016-.3076-.1094-.2022-.1533-.3243-.3325-.6221-.3262-.5132-.8326-.9346-1.4327-1.1846-.3095-.1338-.6401-.1992-.8203-.2432l-.662-.1586-1.3238-.3155-.854-.2046c.502-1.4663 1.044-3.0488 1.5845-4.6264l1.7197.4101 1.021.2437c.1362.0332.4004.1.6587.1255a3.672 3.672 0 0 0 .7646-.0005c.1646-.021.4644-.1382.5205-.171.4004-.208.6573-.4652.7793-.66.1035-.1788.164-.3272.187-.4503.025-.1225.0118-.2187-.0302-.2915.1372-.0317.3545-.0898.6909-.1347.3794-.0484.7759.0493 1.438.2768.5551.165 1.2065.3594 1.9267.5728-1.0444 2.7959-2.2754 6.355-3.0244 8.5468zM896.6055 107.2065c-.0303-.2373-.0498-.2998-.1016-.4736l-4.1348-13.9101-.1298-.4336-.0313-.1094c-.0205-.0596-.0478-.1426-.0771-.2041a1.5834 1.5834 0 0 0-.2217-.3565c-.331-.4062-.8399-.6836-1.416-.6826h-23.0938c-.082-.0078-.5068.004-.7334.1094-.2568.0967-.4746.2402-.664.4258-.1846.1836-.3477.4277-.4307.71l-.129.4345-.2587.8691-.5166 1.7393-2.0693 6.955-1.0332 3.4776-.5166 1.7373-.2588.8701-.129.4356-.0673.2246c-.0166.0898-.0166.1846-.0235.2793-.0586.2012-.084.4678-.0293.667l.0791.3437.1553.6885.1553.6875.0762.3447.039.171c.0127.0615.0576.2158.1006.3095.1924.416.5098.707.9102.8818.1943.084.4492.1377.6611.1338h7.545s2.6943-.0332 6.119-.0761v2.8515l-5.5038 3.8926-.0088.0059c-.1973.1406-.3233.3691-.3213.626.001.4257.3554.7675.79.7646l3.7041-.0254 4.4229-.2363c2.1591-.1367 4.1806-.254 3.9843-.254 1.6192-.121 2.8623-.167 3.0713-.2138.0332.004.0635.0186.0977.0137.1396.0049.0078-.206-.1484-.42-.0391-.0595-.0616-.079-.1182-.1318-1.4893-1.3428-3.2236-2.7969-4.9531-4.0166v-2.9228c4.9492-.0645 9.5879-.1329 9.164-.1485l3.0098-.0752c.4658-.0156.913-.0302 1.3398-.043l.1582-.0068c.0098 0 .0215-.003.0313-.003h.2978c.376 0 .708-.2665.7715-.6425l.0156-.0928c.002-.002.004-.0048.006-.0068.1073-.2676.0966-.4111.1356-.582.0303-.166.0577-.3252.083-.4785l.1319-.8194c.0303-.2295.0586-.4336.084-.6162.0078-.041.002-.082.002-.124l.0429-.2578a.8872.8872 0 0 0 .0107-.125c0-.0264-.0127-.0498-.0156-.0742.1602-.4786.039-1.3252-.0605-2.087zm-11.8096 12.8848c.041.0186.2139.0977.2617.1211.3926.1797.7598.3467 1.1016.503a.863.863 0 0 1 .2021.1044c-.4052-.04-1.4863-.0927-3.544-.1904-3.4482-.2363-7.7997-.5371-7.7997-.5371l-1.293-.0117 3.9004-2.7569c.1943-.1406.3252-.3681.3252-.623v-3.2656c.0322 0 .0625-.001.0947-.001h1.7822l-.001 3.2666a.7703.7703 0 0 0 .3145.6162l.0108.0088c1.4697 1.0771 2.9209 1.8535 4.6445 2.7656zm9.9355-8.5156h-14.7353s-15.1963.2558-14.5606.29c-.953.0352-1.8496.0694-2.6718.1006-.1875-.6475-.3877-1.2236-.545-1.6748l-.0566-.249-.085-.374-.0039-.0225-.0039-.0117-.001-.0059-.0302.0069.0371-.126c.4463.1445 1.2441.2588 1.873.3398.1983.0254.2452.0274.378.0283 10.2822.1524 20.4316.2608 30.6474.2569l-.2422 1.4414zm-31.584-2.7188c-.123.0059-.3388.0371-.3818.046a7.6098 7.6098 0 0 0-.5478.126l3.956-13.2745.5166-1.7383.2588-.8691.129-.4356c.0029-.0088.0107-.0254.041-.0586.0292-.0302.0732-.0576.1054-.0683.0606-.0108-.0469-.0088.1748-.0088H870.171l14.7803.002h5.542c.044-.0108.1308.035.1836.0976a.1109.1109 0 0 1 .0175.0283c-.0058.0078.0147-.0098.004.0078l.0322.1074.1289.4366 4.1357 13.9101c.0547.1621.1944.4746.2256.54.1777.3624.336.6495.4795.8956-10.8467-.0098-21.7715.1015-32.5527.2558zm26.7217-8.7295c-2.0918-.1875-5.0722-.3134-5.0722-.3134s-2.3106-.001-5.2979-.001c.002-2.8535.004-6.1465.004-6.2266-.006-.0244-.041-.0752-.0509-.086-.538-.5751-.9931-.2275-1.1718.0147-.0293.0342-.0293.044-.0293.0713v6.2256c-5.2793-.001-11.8516-.003-12.003-.003-.0449.005-.1347.0401-.1533.0499-1.0302.5283-.4062.9746.0254 1.1474.0625.0303.0801.0303.128.0303h12.0029v2.7735s.208 3.0683.2353 2.9394c.1494 1.2295.4248 2.0215.6924.039.1904-1.1679.3184-2.8349.3184-2.8349s.001-1.2685.002-2.917h5.041s5.4882-.204 5.2587-.2314c2.1983-.1455 3.6172-.417.0703-.6778zM767.3271 360.3672c-.455-.2637-.833-.418-.833-.418s-.5976-.1914-1.5468-.3437c-.9473-.1455-2.2559-.1944-3.5323-.004-1.2763.1817-2.4892.6006-3.3115 1.0255-.83.4199-1.3105.79-1.336.8085-.0126.0196-.0058.082-.0009.0977.2646.8447 1.1182 1.1055 1.46 1.205.0566.0157.0625.0138.078.003.0177-.0166.381-.294 1-.6103.6134-.3223 1.5206-.6329 2.4766-.7813.9551-.1504 1.9424-.127 2.6543-.0166.7149.1025 1.165.2441 1.165.2441s.587.0801 1.1534.2364c.5684.1494 1.0977.3799 1.0742.3369.8985.3174 1.8828.4844.793-.7598-.3262-.373-.8389-.7597-1.294-1.0234zm-12.5146-.4863c.0713.0058.08 0 .1055-.0176.0332-.0254.6465-.4961 1.6953-1.0332 1.041-.545 2.5781-1.0742 4.1982-1.3233 1.6182-.2568 3.29-.2158 4.4951-.0302 1.211.1738 1.9747.413 1.9747.413s.246.04.6035.1231c.3457.1064.8359.208 1.2841.372.921.298 1.754.7227 1.7061.6622 1.3984.6465 2.6924 1.037.8105-.75-.5722-.5244-1.4042-1.0684-2.1289-1.4356-.3828-.1806-.7011-.331-.9218-.4355-.248-.0918-.3887-.1436-.3887-.1436s-.914-.294-2.3652-.5263c-1.4493-.2207-3.4483-.295-5.3985-.002-1.9521.2764-3.8047.918-5.0605 1.5684-1.2676.6406-2.002 1.207-2.04 1.2363-.0225.0254-.0342.1025-.0342.121.037 1.005 1.0273 1.169 1.4648 1.2013zm21.1748 8.4765c-.1143-.4668-.3154-.8496-.5146-1.1494-.418-.5967-.8125-.8584-.8653-.916-.1894-.1465-.6347-.3623-.7363-.3936-1.375-.4941-2.2793-.3007-2.6621-.164-.1973.0781-.295.1601-.3223.2402-.8203-.1308-3.6855-.2695-9.5195-.4062-1.1934-.0313-2.4434-.0645-3.7149-.0967-.6406-.0147-1.287-.0303-1.9355-.045-.6367-.0322-1.5215.0245-2.2188.2608-1.455.455-2.5664 1.5098-2.87 2.6973-.1534.6367-.0987 1.1084-.13 1.5742-.0146.4726-.0273.9346-.04 1.3818l-.1592 6.2295s-.002 4.0654-.002 10.1777c.0274 1.5254-.082 3.165.1329 5.0196.1308.912.2754 1.8945.9336 2.914.6396.9834 1.6504 1.791 2.7851 2.3858 2.2989 1.1767 4.9903 1.6904 7.6914 1.8388 2.707.127 5.504-.1015 8.1465-.9267 1.3106-.42 2.5948-.997 3.664-1.832 1.0548-.8135 1.8438-2.0284 2.0567-3.1143.5137-2.1738.3262-4.1748.3672-6.0918v-10.5781c0-3.1123.002-5.7266.002-7.5928v-.663c-.0059-.2589-.0332-.5177-.0889-.75zm-2.1777 19.296c-.0323 1.9032.1142 3.8896-.2471 5.704-.1865.9278-.5137 1.6475-1.2285 2.289-.6992.6329-1.6445 1.1544-2.71 1.5284-2.1396.753-4.6133 1.041-6.9912.9893-2.377-.0577-4.7344-.461-6.627-1.2793-.9374-.4102-1.7304-.9375-2.2744-1.545-.5537-.5976-.7998-1.2822-.9521-2.0976-.2988-1.5879-.208-3.2129-.2236-4.7266v-10.0342s-.0918-4.8427-.1827-9.5927c.0567-.917.8858-1.753 1.916-2.0606.5333-.1719.9864-.1826 1.6866-.1845a799.6107 799.6107 0 0 0 1.7851-.0264c2.1905-.0322 3.5518-.0586 3.291-.0684 4.8936-.1025 8.9268-.25 9.879-.417.0185.0245.0341.0479.0615.0713.3691.2627 1.2773.6309 1.7246 1.0918.1348.126.1611.166.2783.2442.0293.0341.247.1777.4776.5039.1054.164.2187.371.2832.625.0312.1279.0478.2656.0527.414 0 .206 0 .4229.001.6524v17.919zm-10.1807-6.2452c-.2432-.1904-.6367-.1953-.8848-.0078l-.0097.0078c-.838.627-1.6328 1.4404-2.2442 2.1328-.0068.0117.0078.0322.0078.0322.0938.0538.252.0205.422-.0341-.0811.0341.0566.0742.6054.1455.5351.0869 1.002.162 1.3398.2168.4961.0664.7989.1064.7989.1064.6093.0274 1.2168.0361 1.8056.0371.1612-.001.3233-.0498.4463-.1455.2461-.1924.2461-.5049 0-.6982l-2.287-1.793zm-1.4951 1.9668c-.4776.0723-.9365.1074-1.1377.1426.2246-.0801.4668-.1944.6338-.247.0693-.0284.0713-.0294.0713-.0294.5664-.289 1.0351-.5146 1.4648-.792l.8477.664c-.4883.0684-1.713.2393-1.88.2618zm8.3935 3.4316c-.8007-.6533-1.8408-1.2754-2.7246-1.7539-.0156-.0058-.041.0059-.041.0059-.0683.0723-.0273.1953.042.33-.042-.0624-.0928.045-.1846.4737-.1093.419-.207.7842-.2763 1.0488-.085.3897-.1358.626-.1358.626-.0351.4775-.0468.9522-.0468 1.4131 0 .126.0625.253.1855.3496.2461.1924.6445.1924.8906-.001l2.291-1.791c.2422-.1894.248-.498.0098-.6924l-.0098-.0088zm-2.1787 1.004c-.0869-.3829-.3056-1.3419-.334-1.4717-.0908-.374-.1357-.7334-.1826-.8907.1035.1768.25.3643.3164.4971.0352.0537.0371.0547.0371.0547.3692.4434.6573.8105 1.0127 1.1455l-.8496.665zm-10.2216-2.792l-2.29 1.792c-.2433.1894-.2481.498-.0099.6923l.0098.0078c.8008.6553 1.8399 1.2774 2.7236 1.7569.0157.0058.041-.0059.041-.0059.0684-.0732.0274-.1972-.042-.33.043.0615.0928-.048.1846-.4747.1094-.418.207-.7851.2764-1.0488.085-.3896.1357-.627.1357-.627.0352-.4765.047-.9521.047-1.413 0-.126-.0626-.254-.1856-.3496-.2461-.1924-.6446-.1924-.8906 0zm.0878 3.3564a1.3066 1.3066 0 0 0-.037-.0566c-.3692-.4434-.6563-.8106-1.0118-1.1465l.8486-.664c.087.3827.3057 1.3417.335 1.4726.0899.374.1348.7324.1816.8906-.1035-.1768-.249-.3652-.3164-.4961zm7.2295 2.4043c.0791-.0332-.0595-.0732-.6045-.1445-.536-.087-1.0039-.1621-1.3408-.2168-.497-.0664-.7998-.1075-.7998-.1075-.6094-.0273-1.2148-.0351-1.8047-.0351-.1601 0-.3222.0488-.4453.1445-.246.1934-.246.5059.001.6973l2.2861 1.795c.2422.1894.6367.1933.8848.0067l.0117-.0078c.836-.6279 1.629-1.4404 2.2402-2.1318.0079-.0137-.0078-.0332-.0078-.0332-.0918-.0537-.25-.0215-.4209.0332zm-.7109.2695c-.0684.0283-.0703.0293-.0703.0293-.5674.289-1.0361.5137-1.4629.793l-.8496-.666a1119.969 1119.969 0 0 1 1.8799-.2608c.4765-.0713.9355-.1064 1.1367-.1435-.2246.081-.4649.1953-.6338.248zm-6.163-17.3672c.2763.0791.455.0899.4716.0918.0254 0 .079-.0234.0889-.0302.209-.1553.2822-.3057.29-.4395.0762.083.3506.171.9639.0342.4941-.1152.999-.504 1.1836-.9102.2011-.4023.1406-.7382.1406-.7382s-.0137-.127-.1055-.334c-.0947-.2041-.2773-.4961-.6387-.7461-.6757-.541-2.2343-.708-3.1972.0293-.4737.3418-.7383.8486-.7324 1.3222-.0059.4766.2441.9102.5644 1.1954.3193.293.6973.4482.9707.5253zm.0419-2.3056c.4111-.3428 1.1572-.2862 1.4658-.0596.3438.2246.3711.4717.3711.4717s.1485.2724.0225.5654c-.0967.2988-.4502.504-.4112.4951-.252.1875-.5644.2774-.6455.3721-.0224-.1797-.1435-.3252-.169-.4023-.0136-.0264-.0155-.0264-.0292-.0293 0 0-.3438-.0118-.6504-.2754-.3174-.2412-.3945-.8076.0459-1.1377zm8.0147 2.3056c.2773.0791.455.0899.4716.0918.0264 0 .0801-.0234.0909-.0302.209-.1553.2812-.3057.289-.4395.0762.083.3496.171.963.0342.496-.1152 1-.504 1.1835-.9102.2031-.4023.1416-.7382.1416-.7382s-.0137-.127-.1064-.334c-.0938-.2041-.2764-.4961-.6368-.7461-.6777-.541-2.2343-.708-3.1992.0293-.4726.3418-.7383.8486-.7324 1.3222-.0049.4766.246.9102.5644 1.1954.3204.293.6973.4482.9708.5253zm.043-2.3056c.411-.3428 1.1581-.2862 1.4657-.0596.3428.2246.3711.4717.3711.4717s.1475.2724.0225.5654c-.0977.2988-.4512.504-.4102.4951-.252.1875-.5654.2774-.6464.3721-.0235-.1797-.1446-.3252-.169-.4023-.0127-.0264-.0166-.0264-.0293-.0293 0 0-.3447-.0118-.6504-.2754-.3174-.2412-.3935-.8076.046-1.1377zm-5.1016 6.5566c.2011-.4023.1406-.7392.1406-.7392s-.0137-.126-.1055-.333c-.0947-.2042-.2773-.4961-.6387-.7461-.6757-.542-2.2343-.708-3.1972.0293-.4737.3408-.7383.8486-.7324 1.3222-.0059.4776.246.9092.5644 1.1963.3193.292.6953.4473.9707.5244.2764.0791.455.0889.4717.0928.0254-.002.079-.0234.0889-.0313.209-.1552.2822-.3046.29-.4394.0762.082.3506.17.9639.0332.4941-.1133.999-.503 1.1836-.9092zm-2.1534.794c-.0224-.1817-.1435-.3262-.169-.4034-.0136-.0263-.0155-.0263-.0292-.0283 0 0-.3438-.0137-.6504-.2754-.3174-.2422-.3945-.8086.0459-1.1386.4111-.3438 1.1572-.2862 1.4658-.0586.3438.2246.3711.4707.3711.4707s.1485.2724.0225.5654c-.0967.2978-.4502.5049-.4112.4951-.252.1875-.5644.2774-.6455.373zm2.9483 10.1504c.2773.078.455.0898.4707.0917.0273 0 .08-.0234.0908-.0302.209-.1553.2822-.3057.29-.4395.0762.083.3497.171.963.0332.495-.1142 1-.5029 1.1835-.9092.2022-.4023.1407-.7382.1407-.7382s-.0137-.127-.1055-.334c-.0947-.2051-.2774-.4961-.6387-.7461-.6758-.541-2.2344-.709-3.1973.0293-.4726.3418-.7392.8486-.7343 1.3223-.004.4765.246.9091.5654 1.1953.3203.293.6973.4482.9717.5254zm.043-2.3057c.4101-.3438 1.1562-.2861 1.4648-.0596.3428.2246.371.4707.371.4707s.1485.2735.0225.5664c-.0966.2989-.4511.504-.411.4951-.252.1875-.5645.2774-.6446.3721-.0235-.1797-.1445-.3252-.17-.4023-.0126-.0274-.0165-.0274-.0292-.0293 0 0-.3438-.0117-.6504-.2754-.3164-.2422-.3946-.8086.0468-1.1377zm5.0722-7.7627c.0762.082.3496.17.963.0332.496-.1133 1-.503 1.1835-.9092.2031-.4013.1416-.7392.1416-.7392s-.0137-.126-.1064-.333c-.0938-.2042-.2764-.4961-.6368-.7461-.6777-.54-2.2363-.708-3.1992.0293-.4726.3408-.7383.8486-.7324 1.3222-.0049.4776.246.9092.5644 1.1963.3204.292.6973.4473.9708.5244.2773.0791.455.0889.4716.0928.0264-.002.0801-.0234.0909-.0313.208-.1552.2812-.3046.289-.4394zm-.8545-.789c-.3174-.2423-.3935-.8087.046-1.1387.411-.3438 1.1581-.2862 1.4657-.0586.3428.2246.3711.4707.3711.4707s.1475.2724.0225.5654c-.0977.2978-.4512.5049-.4102.4951-.252.1875-.5644.2774-.6464.373-.0235-.1816-.1446-.3261-.169-.4033-.0127-.0263-.0166-.0263-.0293-.0283 0 0-.3447-.0136-.6504-.2754zM1030.1172 84.3193c-.455-.2646-.833-.4184-.833-.4184s-.5977-.192-1.5469-.3443c-.9473-.145-2.2559-.1938-3.5322-.0029-1.2764.1807-2.4893.6001-3.3115 1.0254-.8301.4194-1.3106.7896-1.336.8086-.0127.0185-.0058.082-.001.0977.2647.8442 1.1182 1.1054 1.46 1.204.0566.0167.0625.0137.0781.0035.0176-.0161.3809-.2935 1-.6104.6133-.3222 1.5205-.6333 2.4766-.7807.955-.1514 1.9424-.127 2.6543-.0171.7148.103 1.165.2441 1.165.2441s.587.08 1.1533.2363c.5684.1495 1.0977.3804 1.0743.337.8984.3173 1.8828.4843.793-.7603-.3262-.373-.839-.7588-1.294-1.0225zm-12.5147-.4873c.0713.0069.0801.0005.1055-.0175.0332-.0254.6465-.4957 1.6953-1.0328 1.041-.5454 2.5781-1.0737 4.1983-1.3232 1.6181-.2568 3.29-.2153 4.495-.0303 1.211.1743 1.9747.4131 1.9747.4131s.246.04.6035.123c.3457.106.836.208 1.2842.3726.9209.2974 1.7539.7227 1.706.6611 1.3985.6475 2.6924 1.0376.8106-.75-.5723-.5239-1.4043-1.0678-2.129-1.4345-.3827-.1812-.701-.3316-.9218-.436-.248-.0914-.3887-.1436-.3887-.1436s-.914-.2935-2.3652-.5259c-1.4492-.2212-3.4482-.2954-5.3984-.003-1.9522.277-3.8047.918-5.0606 1.5684-1.2676.6416-2.002 1.2076-2.04 1.2369-.0225.0258-.0342.1025-.0342.1215.0371 1.0044 1.0273 1.1685 1.4648 1.2002zm21.1748 8.477c-.1142-.4667-.3154-.8495-.5146-1.1493-.418-.5967-.8125-.8584-.8652-.916-.1895-.1465-.6348-.3619-.7364-.3931-1.375-.4946-2.2793-.3008-2.662-.164-.1973.078-.295.16-.3223.2402-.8204-.1309-3.6856-.27-9.5196-.4063-1.1933-.0312-2.4433-.0644-3.7148-.0972-.6406-.0151-1.2871-.0302-1.9356-.0449-.6367-.0317-1.5214.024-2.2187.2603-1.455.4555-2.5664 1.5102-2.8701 2.6977-.1534.6367-.0987 1.1084-.13 1.5742-.0146.4727-.0273.9346-.04 1.3819-.0918 3.5888-.1591 6.2295-.1591 6.2295s-.002 4.0654-.002 10.1777c.0274 1.5254-.082 3.165.1328 5.0195.1309.9121.2754 1.8946.9336 2.9141.6397.9834 1.6504 1.791 2.7852 2.3857 2.2988 1.1768 4.9902 1.6905 7.6914 1.839 2.707.1269 5.5039-.1017 8.1465-.9268 1.3105-.42 2.5947-.9971 3.664-1.832 1.0547-.8136 1.8438-2.0284 2.0567-3.1143.5136-2.1739.3261-4.1748.3672-6.0918v-10.5782c0-3.1123.002-5.7265.002-7.5927v-.6631c-.006-.2588-.0333-.5176-.089-.75zm-2.1777 19.296c-.0322 1.9033.1143 3.8896-.247 5.704-.1866.9278-.5137 1.6475-1.2286 2.2891-.6992.6329-1.6445 1.1543-2.71 1.5284-2.1396.7529-4.6132 1.041-6.9911.9892-2.377-.0576-4.7344-.461-6.627-1.2793-.9375-.4101-1.7305-.9375-2.2744-1.5449-.5537-.5977-.7998-1.2822-.9522-2.0977-.2988-1.5878-.208-3.2128-.2236-4.7265V102.433s-.0918-4.8428-.1826-9.5928c.0566-.917.8857-1.7529 1.916-2.0605.5332-.1719.9863-.1826 1.6865-.1846a799.6107 799.6107 0 0 0 1.7852-.0264c2.1904-.0322 3.5517-.0585 3.291-.0683 4.8936-.1026 8.9268-.25 9.8789-.417.0186.0244.0342.0478.0615.0713.3692.2627 1.2774.6308 1.7246 1.0918.1348.126.1612.166.2784.2441.0293.0342.247.1778.4775.504.1055.164.2187.371.2832.625.0312.1279.0479.2656.0527.414 0 .206 0 .4228.001.6523v17.919zm-10.1807-6.2451c-.2431-.1905-.6367-.1953-.8847-.0078l-.0098.0078c-.8379.627-1.6328 1.4404-2.2441 2.1328-.0069.0117.0078.0322.0078.0322.0937.0537.252.0205.4219-.0342-.081.0342.0566.0742.6054.1455.5352.087 1.002.1621 1.3399.2168.496.0664.7988.1065.7988.1065.6094.0273 1.2168.0361 1.8057.037.1611-.0009.3232-.0497.4463-.1454.246-.1924.246-.505 0-.6983l-2.2872-1.793zm-1.495 1.9668c-.4776.0722-.9366.1074-1.1378.1425.2246-.08.4668-.1943.6338-.247.0694-.0284.0713-.0293.0713-.0293.5664-.289 1.0352-.5147 1.4649-.792l.8476.664c-.4883.0684-1.7129.2393-1.8799.2618zm8.3935 3.4316c-.8008-.6533-1.8408-1.2754-2.7246-1.754-.0157-.0058-.041.006-.041.006-.0684.0722-.0274.1953.042.33-.042-.0625-.0928.045-.1846.4737-.1094.419-.207.7841-.2764 1.0488-.085.3896-.1357.626-.1357.626-.0352.4775-.0469.9521-.0469 1.413 0 .126.0625.253.1855.3497.2461.1923.6446.1923.8907-.001l2.291-1.791c.2422-.1895.248-.498.0097-.6924l-.0097-.0088zm-2.1787 1.004c-.087-.383-.3057-1.3419-.334-1.4718-.0908-.374-.1358-.7334-.1826-.8906.1035.1768.25.3643.3164.497.0351.0538.037.0548.037.0548.3692.4433.6573.8105 1.0128 1.1455l-.8496.665zm-10.2217-2.792l-2.29 1.792c-.2432.1894-.248.498-.0098.6923l.0098.0078c.8007.6553 1.8398 1.2773 2.7236 1.7568.0156.0059.041-.0058.041-.0058.0684-.0733.0273-.1973-.042-.3301.043.0615.0928-.0479.1846-.4746.1094-.418.207-.7852.2763-1.0488.085-.3897.1358-.627.1358-.627.0351-.4766.0469-.9521.0469-1.413 0-.126-.0625-.254-.1856-.3497-.246-.1924-.6445-.1924-.8906 0zm.0879 3.3564a1.3066 1.3066 0 0 0-.0371-.0567c-.3692-.4433-.6563-.8105-1.0117-1.1465l.8486-.664c.0869.3828.3057 1.3418.335 1.4726.0898.374.1347.7325.1816.8907-.1035-.1768-.249-.3653-.3164-.4961zm7.2295 2.4043c.079-.0332-.0596-.0733-.6045-.1446-.5362-.0869-1.004-.162-1.3408-.2168-.4971-.0664-.7998-.1074-.7998-.1074-.6094-.0273-1.2149-.0351-1.8047-.0351-.1602 0-.3223.0488-.4453.1445-.2461.1933-.2461.5058.001.6972l2.286 1.795c.2423.1894.6368.1933.8848.0068l.0118-.0078c.8359-.628 1.6289-1.4404 2.2402-2.1318.0078-.0137-.0078-.0332-.0078-.0332-.0918-.0538-.25-.0215-.421.0332zm-.711.2695c-.0683.0283-.0703.0293-.0703.0293-.5674.289-1.0361.5137-1.4629.793l-.8496-.666a1119.969 1119.969 0 0 1 1.88-.2608c.4765-.0713.9355-.1064 1.1366-.1436-.2246.0811-.4648.1954-.6338.248zm-6.163-17.3672c.2763.0791.455.0898.4716.0918.0254 0 .0791-.0234.0889-.0303.209-.1552.2822-.3056.29-.4394.0762.083.3506.1709.9639.0342.4941-.1153.999-.504 1.1836-.9102.2012-.4023.1406-.7383.1406-.7383s-.0136-.127-.1054-.334c-.0948-.204-.2774-.496-.6387-.746-.6758-.541-2.2344-.708-3.1973.0292-.4736.3418-.7383.8487-.7324 1.3223-.0059.4766.2441.9102.5644 1.1953.3194.293.6973.4483.9708.5254zm.042-2.3057c.411-.3427 1.1572-.2861 1.4658-.0595.3437.2246.371.4716.371.4716s.1485.2725.0225.5655c-.0967.2988-.4502.5039-.4111.495-.252.1876-.5645.2774-.6455.3722-.0225-.1797-.1436-.3252-.169-.4024-.0136-.0263-.0156-.0263-.0293-.0293 0 0-.3437-.0117-.6504-.2754-.3173-.2412-.3945-.8076.046-1.1377zm8.0146 2.3057c.2773.0791.455.0898.4717.0918.0263 0 .08-.0234.0908-.0303.209-.1552.2812-.3056.289-.4394.0762.083.3497.1709.963.0342.496-.1153 1-.504 1.1835-.9102.2032-.4023.1416-.7383.1416-.7383s-.0136-.127-.1064-.334c-.0938-.204-.2764-.496-.6367-.746-.6778-.541-2.2344-.708-3.1992.0292-.4727.3418-.7383.8487-.7325 1.3223-.0048.4766.2461.9102.5645 1.1953.3203.293.6973.4483.9707.5254zm.043-2.3057c.411-.3427 1.1582-.2861 1.4658-.0595.3428.2246.371.4716.371.4716s.1475.2725.0225.5655c-.0976.2988-.4511.5039-.4101.495-.252.1876-.5655.2774-.6465.3722-.0234-.1797-.1445-.3252-.169-.4024-.0126-.0263-.0166-.0263-.0292-.0293 0 0-.3448-.0117-.6504-.2754-.3174-.2412-.3936-.8076.0459-1.1377zm-5.1016 6.5567c.2012-.4024.1406-.7393.1406-.7393s-.0136-.126-.1054-.333c-.0948-.204-.2774-.496-.6387-.746-.6758-.542-2.2344-.708-3.1973.0292-.4736.3408-.7383.8486-.7324 1.3223-.0059.4775.246.9092.5644 1.1963.3194.292.6954.4472.9708.5244.2763.079.455.0889.4716.0928.0254-.002.0791-.0235.0889-.0313.209-.1553.2822-.3047.29-.4394.0762.082.3506.1699.9639.0332.4941-.1133.999-.503 1.1836-.9092zm-2.1533.794c-.0225-.1817-.1436-.3262-.169-.4034-.0136-.0264-.0156-.0264-.0293-.0283 0 0-.3437-.0137-.6504-.2754-.3173-.2422-.3945-.8086.046-1.1387.411-.3437 1.1572-.2861 1.4658-.0586.3437.2246.371.4707.371.4707s.1485.2725.0225.5655c-.0967.2978-.4502.5048-.4111.495-.252.1876-.5645.2774-.6455.3731zm2.9482 10.1503c.2774.0781.4551.0899.4707.0918.0274 0 .0801-.0234.0908-.0303.209-.1552.2823-.3056.29-.4394.0763.083.3497.1709.963.0332.495-.1143 1-.503 1.1836-.9092.2021-.4023.1406-.7383.1406-.7383s-.0137-.127-.1055-.334c-.0947-.205-.2773-.496-.6386-.746-.6758-.541-2.2344-.709-3.1973.0292-.4727.3418-.7393.8487-.7344 1.3223-.0039.4766.2461.9092.5654 1.1953.3204.293.6973.4483.9717.5254zm.043-2.3057c.4101-.3437 1.1562-.286 1.4648-.0595.3428.2246.3711.4707.3711.4707s.1485.2734.0225.5664c-.0967.2988-.4512.5039-.4111.4951-.252.1875-.5645.2773-.6446.372-.0234-.1796-.1445-.3251-.1699-.4023-.0127-.0273-.0166-.0273-.0293-.0293 0 0-.3437-.0117-.6504-.2754-.3164-.2421-.3945-.8085.0469-1.1377zm5.0723-7.7626c.0761.082.3496.1699.9628.0332.4961-.1133 1-.503 1.1836-.9092.2032-.4014.1416-.7393.1416-.7393s-.0136-.126-.1064-.333c-.0938-.204-.2764-.496-.6367-.746-.6778-.5401-2.2364-.708-3.1992.0292-.4727.3408-.7383.8486-.7325 1.3223-.0048.4775.2461.9092.5645 1.1963.3203.292.6973.4472.9707.5244.2773.079.455.0889.4717.0928.0263-.002.08-.0235.0908-.0313.208-.1553.2812-.3047.289-.4394zm-.8545-.7891c-.3174-.2422-.3936-.8086.0459-1.1387.411-.3437 1.1582-.2861 1.4658-.0586.3428.2246.371.4707.371.4707s.1475.2725.0225.5655c-.0976.2978-.4511.5048-.4101.495-.252.1876-.5645.2774-.6465.3731-.0234-.1816-.1445-.3261-.169-.4033-.0126-.0264-.0166-.0264-.0292-.0283 0 0-.3448-.0137-.6504-.2754zM971.8242 155.7363l-3.6328-.7168-6.5068-1.2734.001-7.4287v-1.0127c.0136-.334-.045-.8897-.2276-1.292-.3486-.8662-1.1396-1.5469-2.0752-1.8291-.9375-.2822-1.998-.1445-2.8223.3633-.8222.502-1.3828 1.3642-1.4765 2.2851l-.0176 15.084-4.2422-1.4844-.0068-.002c-.125-.0429-.253-.0526-.377-.0429-.1474-.037-.292-.0888-.4443-.1094-.2324-.0332-.6895.0293-.7813.0547-1.2968.3477-1.6523 1.1035-1.7226 1.414-.0332.1769-.0098.2843.0469.3419-.1485.1494-.3897.4453-.498 1.0078-.1134.5879.0214 1.624 1.0546 2.3457.9277.6328 2.0488 1.4004 3.3965 2.3203 2.2793 1.5371 4.8555 3.2774 7.1836 4.8477l-.1133-.0899c1.664 1.1963 3.1543.8028 4.3516.9112 1.2422.0224 2.3691.044 3.3203.0605 1.9052.0313 3.1025.0518 3.1025.0518h.46c.1738-.0059.3906-.0078.583-.039.3935-.0528.7812-.1632 1.1396-.3282.7149-.332 1.3135-.875 1.6895-1.5371a3.4877 3.4877 0 0 0 .3828-1.0586c.0645-.377.0781-.5957.121-.9024l.21-1.7168.4229-3.4297.211-1.7148c.0507-.6074.1855-1.0459.162-1.875-.1015-1.5078-1.3222-2.8682-2.8945-3.205zm1.041 4.379l-.203 1.6581-.4083 3.3174-.4082 3.249c-.1504.7657-.8545 1.4102-1.6777 1.5215-.0254.002-.172.043-.875.041-.6465.0079-1.5625.0196-2.6494.0352-1.086.0156-2.3418.0322-3.665.0508-.632.0058-1.4063.0283-1.9552.0195a4.6554 4.6554 0 0 1-.8574-.1445c-.2637-.0606-.5625-.2031-.5918-.2363a.3967.3967 0 0 0-.0918-.0782l-.0283-.0185c-3.9316-2.417-7.5156-4.6143-7.1904-4.3877-.875-.5215-1.7158-1.0235-2.5-1.4912-.3887-.2276-.7617-.4473-1.1192-.6563-.3632-.2012-.58-.374-.7773-.622-.3711-.4786-.4512-1.0274-.4063-1.4317.041-.3828.166-.6406.2266-.8008.0273.001.0527.004.084-.002.2012-.0312.4697-.162.7734-.2275.3028-.0693.629-.085.9033-.0361.1573.0312.1963.039.3145.0498.1377.0186.2725.0518.4043.0986l.0205.0078.0059.002c.078.0254.1562.0273.2363.0332l5.211 1.8223a.9582.9582 0 0 0 .3095.0527c.4893 0 .8857-.371.8857-.83l.0078-16.1173c.045-.4238.3047-.8242.6895-1.0605.379-.2344.877-.2998 1.3135-.168.4306.1309.8056.4483.9638.8506.086.2266.1104.3516.1075.6914v9.1094c0 .3857.287.7314.705.8135l6.9688 1.3642 3.4844.6826c.332.0606.4668.0967.6738.1778.1895.0752.3633.1855.5176.3144.3144.254.5351.6055.6347.9805.0547.1875.0655.3828.0547.5771-.0127.1924-.0625.5303-.0918.7881zm-33.455-21.965c.8232.0157 1.5761-.291 2.08-.6874.5098-.4014.794-.8701.9336-1.2168.1426-.3496.166-.5752.1719-.5957-.002-.0332-.042-.1025-.0537-.1172-.2608-.2988-.5332-.375-.7734-.3799.042-.0283.083-.0771.122-.165.0723-.1836.1387-.5371-.0468-1.0586-.1895-.6309-.8536-1.2774-1.5508-1.5195-.6934-.2637-1.2754-.1973-1.2754-.1973s-.2178.0156-.5781.128c-.3565.1122-.8614.3417-1.3047.79-.4473.4336-.8106 1.1123-.8516 1.8779-.0508.7578.249 1.5967.8477 2.1904.5879.6026 1.459.9492 2.2793.9512zm-1.0352-3.8398c.3857-.4199.8164-.4345.8008-.4472 0 0 .1064-.041.2851-.0703.1797-.0293.4278-.0244.67.0449.5058.121.8535.5625.8398.5117.3242.3164.4844.7129.6553.8115-.0244.001-.0537.001-.0772.003-.293.042-.5136.1328-.6513.1836-.046.0136-.046.0185-.0498.0351 0 0-.0293.4258-.4795.795-.415.3808-1.3643.4706-1.915-.0792-.5802-.5244-.4747-1.4033-.0782-1.788zm3.4688 8.0293c-.1885-.6308-.8516-1.2773-1.5489-1.5195-.6933-.2637-1.2754-.1973-1.2754-.1973s-.2168.0157-.578.126c-.3556.1123-.8604.3428-1.3038.7881-.4492.4346-.8115 1.1113-.8545 1.877-.0527.7597.248 1.5976.8477 2.1894.5878.6035 1.457.9492 2.2773.9531.8223.0157 1.5742-.289 2.08-.6855.5098-.4004.795-.8691.9337-1.2168.1445-.3477.168-.5742.1738-.5957-.002-.0313-.042-.1006-.0537-.1152-.2607-.2979-.5332-.375-.7734-.3809.042-.0273.083-.0762.122-.166.0723-.1817.1387-.5352-.0468-1.0567zm-.295 1.2344c-.293.041-.5136.1319-.6513.1817-.046.0146-.046.0195-.0498.0341 0 0-.0293.4258-.4805.795-.416.3798-1.3652.4707-1.916-.081-.5782-.5226-.4727-1.4005-.0742-1.7852.3847-.419.8144-.4336.7988-.4454 0 0 .1074-.04.287-.0703.1778-.0293.4259-.0234.668.046.506.12.8536.5614.8399.5107.3242.3164.4844.7129.6553.8105-.0244.002-.0537.001-.0772.004zm.2198 8.3946c.042-.0274.083-.0782.122-.166.0723-.1817.1387-.5352-.0488-1.0587-.1895-.6289-.8535-1.2734-1.5527-1.5156-.6914-.2617-1.2735-.1953-1.2735-.1953s-.2187.0156-.579.127c-.3546.1132-.8585.3418-1.3018.79-.4493.4336-.8125 1.1123-.8516 1.8799-.0508.7578.252 1.5957.8516 2.1875.5869.6015 1.459.9472 2.2773.9472.8233.0157 1.5762-.291 2.08-.6865.5099-.4013.793-.8701.9317-1.2178.1426-.3486.166-.5742.1719-.5947-.002-.0342-.042-.1025-.0537-.1162-.2608-.2988-.5332-.375-.7734-.3809zm-.2198.0117c-.293.041-.5136.1318-.6513.1826-.046.0146-.046.0185-.0498.0342 0 0-.0293.4267-.4786.7959-.416.3808-1.3642.4716-1.916-.0782-.5781-.5234-.4765-1.4004-.0781-1.7841.3848-.42.8145-.4356.7988-.4473 0 0 .1075-.04.2871-.0713.1778-.0283.4258-.0244.668.044.5059.121.8555.5625.8418.5107.3242.3154.4844.712.6553.8096-.0244.002-.0537.001-.0772.0039zm6.623-13.8301c.8243.0156 1.5762-.291 2.0802-.6875.5097-.4014.793-.8711.9316-1.2188.1435-.3476.168-.5732.1738-.5957-.002-.0312-.043-.1005-.0547-.1152-.2597-.2988-.5332-.375-.7734-.3799.041-.0283.083-.0771.122-.165.0723-.1836.1397-.5362-.0468-1.0586-.1885-.629-.8525-1.2774-1.5498-1.5195-.6914-.2637-1.2754-.1973-1.2754-.1973s-.2168.0156-.5781.127c-.3555.1132-.8604.3427-1.3028.791-.4492.4355-.8105 1.1132-.8496 1.8779-.0527.7568.2461 1.5947.8448 2.1885.5869.6045 1.46.9521 2.2783.953zm-1.0322-3.8399c.3838-.4199.8135-.4345.7979-.4472 0 0 .1064-.041.2852-.0703.1796-.0293.4267-.0244.6689.0449.5068.121.8545.5625.8408.5117.3233.3164.4824.7129.6543.8115-.0254.001-.0527.001-.0781.003-.293.042-.5117.1328-.6504.1826-.0469.0146-.0469.0195-.0488.0342 0 0-.0293.4277-.4805.7968-.414.3809-1.3633.4707-1.9121-.079-.5781-.5225-.4736-1.4063-.0772-1.7882zm3.4649 8.0293c-.1885-.6289-.8506-1.2773-1.5479-1.5195-.6914-.2637-1.2744-.1982-1.2744-.1982s-.2177.0166-.5781.127c-.3564.1122-.8604.3427-1.3037.788-.4492.4356-.8106 1.1133-.8516 1.877-.0527.7578.2461 1.5966.8438 2.1894.5879.6035 1.459.9512 2.2773.9531.8233.0157 1.5762-.29 2.0801-.6855.5098-.4004.793-.8691.9336-1.2168.1426-.3477.167-.5742.1738-.5957-.002-.0313-.043-.1016-.0547-.1152-.2597-.2979-.5332-.375-.7734-.3809.041-.0273.083-.0762.122-.166.0723-.1817.1397-.5352-.0468-1.0567zm-.296 1.2344c-.2929.041-.5116.1319-.6503.1817-.0469.0146-.0469.0195-.0488.0341 0 0-.0293.4258-.4805.795-.416.3798-1.3652.4707-1.913-.081-.5772-.5206-.4718-1.4024-.0753-1.7852.3848-.419.8125-.4336.7969-.4454 0 0 .1074-.04.2871-.0703.1787-.0293.4258-.0234.668.046.5058.12.8535.5614.8398.5107.3233.3164.4824.7129.6543.8105-.0254.002-.0527.001-.0781.004zm-.0546 10.7031c.5088-.4023.792-.8691.9297-1.2168.1435-.3496.168-.5751.1738-.5947-.002-.0342-.043-.1025-.0547-.1162-.2597-.2988-.5332-.375-.7734-.3808.041-.0274.083-.0782.122-.166.0714-.1817.1397-.5352-.0478-1.0567-.1894-.629-.8535-1.2754-1.5517-1.5176-.6914-.2617-1.2745-.1953-1.2745-.1953s-.2177.0156-.578.127c-.3556.1132-.8595.3418-1.3028.791-.4473.4345-.8106 1.1133-.8486 1.8789-.0499.7568.249 1.5937.8486 2.1865.5869.6025 1.46.9482 2.2793.9482.8222.0157 1.5742-.291 2.0781-.6875zm-3.1152-3.1484c.3847-.418.8125-.4336.7968-.4453 0 0 .1075-.041.2872-.0713.1777-.0283.4257-.0244.668.0459.5058.1191.8534.5605.8398.5088.3252.3154.4843.712.6562.8096-.0254.002-.0527.001-.0781.0039-.293.041-.5117.1318-.6504.1826-.0469.0146-.0469.0185-.0488.0342 0 0-.0293.4267-.4805.7959-.414.3808-1.3623.4716-1.9111-.0772-.5791-.5224-.4756-1.4033-.0791-1.787zm9.7949-12.9785c.8223.0137 1.5762-.291 2.08-.6875.5098-.4014.792-.8711.9317-1.2188.1426-.3476.166-.5732.1719-.5937-.002-.0332-.042-.1025-.0527-.1172-.2608-.2988-.5332-.375-.7735-.3799.041-.0283.082-.0771.1211-.165.0723-.1836.1397-.5362-.0469-1.0586-.1884-.629-.8515-1.2774-1.5488-1.5195-.6934-.2637-1.2754-.1973-1.2754-.1973s-.2178.0156-.579.127c-.3565.1132-.8604.3427-1.3038.791-.4473.4355-.8086 1.1132-.8496 1.8779-.0508.7568.247 1.5947.8457 2.1885.5879.6045 1.46.9521 2.2793.953zm-1.0332-3.8399c.3848-.4199.8125-.4345.7969-.4472 0 0 .1074-.041.287-.0703.1778-.0293.4259-.0244.668.0449.5059.121.8536.5625.8409.5117.3232.3164.4834.7129.6543.8115-.0254.001-.0537.001-.0772.003-.293.042-.5137.1328-.6504.1826-.0469.0146-.0469.0195-.0508.0342 0 0-.0273.4277-.4795.7968-.415.3809-1.3642.4707-1.913-.079-.5772-.5225-.4727-1.4063-.0762-1.7882zM815.8438 224.6475c-1.2422-2.5616-3.1417-4.6993-4.7364-5.9444-1.6006-1.25-2.751-1.7842-2.5342-1.6748-2.0195-1.1172-4.0712-1.6592-5.6533-1.8867-1.5254-.2256-2.621-.1191-3.043-.087-.0165-.0214-.0312-.0439-.0595-.0663-.3281-.212-1.4502-.4307-2.374-.3828-.2676.002-.3409.0136-.541.043-.127.0302-1.461.162-3.5225.955-1.0361.377-2.2188.9844-3.4893 1.794-1.2285.8662-2.5635 1.9267-3.7422 3.3447-2.3623 2.7851-4.2412 6.8945-4.2382 11.4805-.0508 4.5488 1.8261 9.412 5.3027 12.8007 3.4277 3.4356 8.2832 5.2637 12.7978 5.1817 4.5547-.0088 8.5977-1.9033 11.339-4.207 1.3866-1.1602 2.4364-2.4512 3.289-3.6387.3799-.626.7617-1.1983 1.0468-1.7637.2647-.5742.5508-1.085.7305-1.5791.1807-.4932.3418-.9346.4815-1.3174.1162-.3906.1933-.7305.2666-1.002.1377-.5449.209-.8368.209-.8368s.0507-.3614.1406-.9913c.122-.6279.1377-1.538.1709-2.621.0039-2.167-.5557-5.0606-1.8409-7.6006zm.3466 7.9902c-.0449.6064-.0625 1.0928-.1015 1.4228-.0547.3282-.085.5079-.085.5079s-.042.2744-.1201.789c-.0244.2617-.127.5684-.2158.9356-.1065.3613-.172.7959-.3604 1.246-.6201 1.8223-1.8701 4.422-4.335 6.708-2.3896 2.3243-6.1035 4.1632-10.2988 4.3721-4.1797.2618-8.7353-1.2744-12.001-4.3652-3.3105-3.0371-5.1972-7.4902-5.2011-11.7129-.0742-4.248 1.5967-8.0742 3.7607-10.6816 1.0977-1.3067 2.3106-2.3125 3.4453-3.123 1.1778-.7462 2.2666-1.3175 3.2237-1.668 1.9043-.7373 3.1386-.8575 3.2529-.8848.1719-.0322.5098-.129.582-.1524 1.46-.3886 2.087-.6308 2.1719-.8378.2266.0449.6201.0976 1.2227.1699 1.3056.211 3.6826.5293 6.7783 2.2676 1.7988 1.0488 3.5625 2.578 4.9199 4.3906 1.3701 1.8047 2.3174 3.8681 2.8184 5.7705.537 1.9023.5693 3.6357.543 4.8457zm-5.9492 4.4443c-.0918-.1504-.1406-.2314-.1406-.2314s-.0635-.0947-.1748-.2617c-.0928-.1602-.3252-.4112-.6016-.6563-.5937-.5234-1.585-.751-2.3574-.7861-.79-.0469-1.4785-.08-1.9522-.1973-.4716-.1074-.7402-.2383-.6953-.2012-.5341-.2197-.957-.5498-1.2773-.8261.3037-.8106.1728-1.504.044-1.6328.0214-.004.0458 0 .0673-.0069.2412-.0605.4395-.2998.5166-.5166.0928.0117.1865.0176.2754.0147.082.0029.1006-.005.1524-.0283.0322-.0225.373-.1485.9091-.464.2696-.1532.5996-.3202.9483-.5751.3623-.2275.747-.5244 1.1474-.8809.7754-.7129 1.667-1.7324 1.9932-3.1484.3516-1.4063-.0205-3.0049-.8203-4.1992-1.5928-2.4092-4.3945-3.7676-6.7022-3.461-1.1582.129-2.0312.7696-2.4882 1.2618a11.688 11.688 0 0 0-.4815.621c-.085.1543-.1299.2374-.1299.2374l-.1396.2822c-.0918.1601-.1934.4873-.2676.8486-.1562.7764.1416 1.749.499 2.4346.3545.707.669 1.3213.8047 1.789.1426.463.164.7598.1738.7032.0528.3984.0323.7763-.0107 1.1093-.8027.044-1.6172.3497-2.2744.881a1.7769 1.7769 0 0 0-.0986-.1817c-.0381-.0733-.0547-.086-.1006-.1182-.0352-.0166-.3155-.249-.8565-.5557-.2666-.1562-.5771-.3584-.9726-.5332-.378-.2002-.8272-.3847-1.336-.5547-1.0049-.3134-2.334-.5761-3.7236-.1503-1.3936.3984-2.5918 1.5195-3.2256 2.8095-1.291 2.583-1.0664 5.6895.3535 7.5342.6905.9385 1.6826 1.375 2.337 1.5244a10.79 10.79 0 0 0 .7783.1065c.1767-.004.2705-.0059.2705-.0059s.1142-.0078.3134-.0205c.1856-.001.5196-.0762.8692-.1924.751-.253 1.4433-.997 1.8603-1.6494.4346-.6611.8086-1.2402 1.1465-1.5908.3291-.3555.5762-.5235.5215-.502.3545-.2734.7324-.455 1.0703-.5879.0772.1133.1524.2325.2354.3301.5234.6162 1.123.959 1.5566 1.1309.0264.0097.046.0156.0713.0244-.0674.084-.1289.1728-.1758.2617-.044.0693-.0459.0908-.0517.1465.0029.039-.0577.3975-.0528 1.0185-.0029.3106-.0224.6797.0235 1.1094.0166.4278.081.9092.1884 1.4336.2305 1.0274.668 2.3106 1.7315 3.3008 1.041 1.0078 2.6123 1.4853 4.0459 1.3887 2.8828-.1739 5.461-1.921 6.3486-4.0723.4668-1.0684.3487-2.1445.1514-2.7871a11.5924 11.5924 0 0 0-.2969-.7266zm-14.0879-3.1113c-.3281.0586-.707.164-1.1513.377-1.2159.5664-2.0811 1.996-2.7793 2.6308-.7032.6387-1.2735.5195-1.3096.5332.0058-.0244-.2783.0557-.7149-.0263-.4384-.0586-1.036-.2657-1.5498-.8428-1.0625-1.129-1.4062-3.8438-.3798-5.9102.4834-1.037 1.3271-1.832 2.2812-2.123.9492-.338 1.9863-.1524 2.8272.1045.4248.1455.8125.294 1.1474.4736.3438.1504.628.334.8682.4766.4863.2734.751.4922.7812.5068.044.0225.1485.042.1719.044h.0068c-.3916.6503-.6025 1.3984-.5888 2.1103.001.6025.1601 1.1572.3896 1.6455zm3.3604-10.4512c-.2022-.9277.1855-1.3623.1924-1.4004.0175.0176.0908-.2695.3798-.6064.2705-.3506.748-.7647 1.505-.9209 1.5097-.3555 4.0321.7041 5.3075 2.627.6573.9355.9239 2.0644.6983 3.036-.1817.9913-.8613 1.796-1.504 2.3975-.3378.295-.661.5547-.9843.7559-.3018.2227-.6025.377-.8457.5137-.4795.2851-.8027.4043-.83.4238-.0401.0254-.1046.0996-.1212.122a4.0045 4.0045 0 0 0-.9775-1.2333c-.5342-.4551-1.2979-.8115-2.1504-.9053.0976-.2979.1826-.6436.2178-1.087.1172-1.3358-.6875-2.8007-.8877-3.7226zm-.54 11.0762c-.2716-.0928-.6602-.2793-1.002-.6484-.3487-.3575-.6201-.9102-.6514-1.5371-.038-.627.1904-1.3018.6524-1.791.455-.4942 1.1162-.7754 1.747-.7754.6367-.0098 1.2022.2392 1.5928.5615.3906.331.6104.7119.7139.995.1103.2833.1279.4669.1318.4845.0098.0244.0615.0703.0762.08.2715.2012.5107.3184.7197.336-.038.041-.0781.1113-.121.2207-.088.1953-.2022.5185-.4435.9062-.037 0-.0585.0244-.0546.085-.0313.0478-.0557.0918-.0918.1416-.4346.5771-1.1797 1-1.7881 1.082-.6094.0987-1.039-.037-1.039-.037s-.167-.0128-.4425-.1036zm10.0458 5.2305c-.4463 1.4843-2.625 3.1386-4.9287 3.2832-1.1387.1006-2.25-.2324-2.9785-.914-.7676-.6524-1.125-1.6436-1.3232-2.5-.087-.4405-.1514-.8517-.1631-1.2315-.042-.3721-.0264-.71-.0225-.9893-.0058-.5576.0518-.8975.0488-.9307-.002-.0498-.037-.1494-.0478-.1709-.0264-.0546-.0527-.0878-.0791-.1367.0771.001.1533.002.2422-.002.4785-.0185 1.1113-.1679 1.6504-.4716.6982-.3604 1.1474-.9326 1.375-1.2998.2216.3047.5459.6533 1.0625 1.0078 1.0986.7695 2.7685.8047 3.668 1.0918.9042.289 1.0859.8428 1.1161.8672-.0234.0068.1875.2139.335.6328.168.4092.2881 1.0293.045 1.7637zM443.7676 414.1416c-.3076-1.0615-.5918-1.3535-.832-1.2656-.4473-.124-1.7657-.254-4.3165-.3809-4.3584-.2666-10.5752-.4443-10.5752-.4443l-18.9736-.0049h-.002c-.4345.002-.787.3896-.787.8691l-.004 21.6797c.0069.1045.0518.3086.0645.3526.3076 1.0625.5918 1.3535.832 1.2666.4473.124 1.7657.2529 4.3164.3808 4.3584.2657 10.5752.4444 10.5752.4444h.3565v1.8134s.0449.415.1006.9121c-3.253-.001-6.7432-.0029-6.833-.0029-.0293.0059-.0899.0567-.1016.0703-.6885.75-.2715 1.3838.0176 1.63.041.042.0517.042.084.0429h12.2148s3.666-.291 3.5137-.3281c1.4668-.208 2.414-.5928.0449-.964-1.3965-.2655-3.3867-.4452-3.3867-.4452h-2.5371a51.2457 51.2457 0 0 0 .12-2.7276l15.38.003c.4365 0 .789-.3897.789-.8682l.004-21.6807c-.0069-.1035-.0518-.3086-.0645-.3525zm-30.1328 21.4902c-1.8633.084-3.456.1973-4.1963.3272.1699-.2715.3008-.7012.3838-1.0713.039-.1436.039-.1836.04-.293v-20.8086h17.6465s11.4443-.29 10.9648-.328c1.8633-.084 3.457-.1983 4.1973-.3292-.17.2725-.3008.7031-.3838 1.0732-.039.1436-.039.1827-.04.292v20.8086h-17.6465s-11.4443.29-10.9658.3291zm12.2558 4.1348c.0684-.457.1094-.795.1094-.795v-1.9286h.123c.0264.8271.082 1.6494.1739 2.5263.0068.0225.043.0928.0527.1104.0186.0312.0342.0566.0508.0869h-.5098z"/><path fill="none" stroke="#FFF" stroke-miterlimit="10" d="M1055.9307 64.9268h-46.172L986.673 104.224l23.0859 39.2964h46.1719l23.0869-39.2964zM1055.9307 238.9092h-46.172L986.673 278.207l23.0859 39.296h46.1719l23.0869-39.296zM745.8652 67.0186h-46.1718l-23.086 39.2978 23.086 39.2959h46.1718l23.087-39.2959zM1055.9307-21.269h-46.172L986.673 18.0283l23.0859 39.2964h46.1719l23.0869-39.2964zM978.584 109.3037H932.412l-23.086 39.2979 23.086 39.2959h46.1719l23.0869-39.296zM978.584 196.251H932.412l-23.086 39.2978 23.086 39.296h46.1719l23.0869-39.296zM822.8818 195.875H776.71l-23.086 39.2979 23.086 39.2959h46.1718l23.087-39.296zM822.8818 109.6792H776.71l-23.086 39.2974 23.086 39.2968h46.1718l23.087-39.2968zM900.665 151.874h-46.1718l-23.086 39.2979 23.086 39.2959h46.1718l23.087-39.296zM900.665 64.9268h-46.1718l-23.086 39.2973 23.086 39.2954h46.1718l23.087-39.2954zM40.499 40.6875H-5.6729l-23.0859 39.2979 23.086 39.2959H40.499l23.087-39.296zM40.499-45.5083H-5.6729L-28.7588-6.2109l23.086 39.2968H40.499L63.586-6.2109zM118.2822-3.3135H72.1104l-23.086 39.2979 23.086 39.2959h46.1718l23.087-39.296zM118.2822-90.2607H72.1104l-23.086 39.2973 23.086 39.2954h46.1718l23.087-39.2954z"/><path d="M67.44 218.3701h3.8403v7.129h6.6006v-7.129h3.8403v16.8018h-3.8403v-6.457h-6.6006v6.457h-3.8404V218.37zM90.504 226.747c0-5.1122 4.0082-8.833 8.9525-8.833 4.9449 0 8.9292 3.7208 8.9292 8.833 0 5.1368-3.9843 8.8087-8.9292 8.8087-4.9443 0-8.9526-3.672-8.9526-8.8086zm13.9691 0c0-3.1679-2.2319-5.376-5.0405-5.376-2.7602 0-5.0405 2.2081-5.0405 5.376s2.2803 5.3526 5.0405 5.3526c2.8086 0 5.0405-2.1846 5.0405-5.3525zM117.1675 217.914h.312l8.065 8.1846 8.0644-8.1845h.312v17.2578h-3.768v-8.5684l-4.4405 4.3682h-.336l-4.4404-4.3682v8.5684h-3.7685V217.914zM143.3516 218.3701h11.353v3.2647h-7.5127v3.96h6.5527v3.0243h-6.5527v3.2881h7.753v3.2647h-11.5933V218.37zM180.0479 221.6348h-5.1602V218.37h14.1611v3.2647h-5.1606v13.537h-3.8403v-13.537zM197.8071 218.3701h11.353v3.2647h-7.5126v3.96h6.5527v3.0243h-6.5527v3.2881h7.7529v3.2647H197.807V218.37zM217.6074 226.747c0-5.1122 3.9126-8.833 9.0488-8.833 2.2564 0 4.4166.7442 6.0484 2.3048l-1.9439 2.7363c-1.224-.9844-2.6884-1.584-4.1762-1.584-2.9766 0-5.0889 2.3281-5.0889 5.376 0 3.168 2.2324 5.3525 5.0889 5.3525 1.7998 0 3.4082-.8877 4.56-1.8965l1.8721 2.7842c-1.6797 1.6328-3.8882 2.5684-6.4082 2.5684-5.0884 0-9.001-3.672-9.001-8.8086zM241.559 218.3701h3.8404v7.129H252v-7.129h3.8403v16.8018H252v-6.457h-6.6006v6.457h-3.8403V218.37zM269.0396 226.123v9.0489h-3.7686v-17.2813h.312l10.585 9.7442V218.37h3.7685v17.2822h-.312l-10.585-9.5293zM288.7188 226.747c0-5.1122 4.0083-8.833 8.9526-8.833 4.9448 0 8.9292 3.7208 8.9292 8.833 0 5.1368-3.9844 8.8087-8.9292 8.8087-4.9443 0-8.9527-3.672-8.9527-8.8086zm13.9692 0c0-3.1679-2.232-5.376-5.0405-5.376-2.7603 0-5.0406 2.2081-5.0406 5.376s2.2803 5.3526 5.0406 5.3526c2.8086 0 5.0405-2.1846 5.0405-5.3525zM315.3823 218.3701h3.8404v13.5371h8.0888v3.2647h-11.9292V218.37zM334.103 226.747c0-5.1122 4.0083-8.833 8.9527-8.833 4.9448 0 8.9292 3.7208 8.9292 8.833 0 5.1368-3.9844 8.8087-8.9292 8.8087-4.9444 0-8.9527-3.672-8.9527-8.8086zm13.9693 0c0-3.1679-2.232-5.376-5.0406-5.376-2.7602 0-5.0405 2.2081-5.0405 5.376s2.2803 5.3526 5.0405 5.3526c2.8086 0 5.0406-2.1846 5.0406-5.3525zM360.1187 226.7227c0-5.088 3.9126-8.8086 9.0488-8.8086 2.2563 0 4.4165.7441 6.0483 2.3046l-1.9438 2.7364c-1.2241-.9844-2.6885-1.584-4.1763-1.584-2.9766 0-5.0889 2.3281-5.0889 5.376 0 3.168 2.2085 5.496 5.0889 5.496 1.3198 0 2.544-.456 3.6719-1.3193v-2.4726h-4.296v-2.6885h7.7764v6.2646c-1.8242 2.3047-4.3681 3.5284-7.2246 3.5284-4.9443 0-8.9047-3.672-8.9047-8.833zM389.663 229.0996l-6.2167-10.7295h4.2485l3.9126 7.753 3.8882-7.753h4.2485l-6.2407 10.7295v6.0723h-3.8403v-6.0723zM420.6704 217.914h.312l8.065 8.1846 8.0644-8.1845h.312v17.2578h-3.768v-8.5684l-4.4405 4.3682h-.336l-4.4403-4.3682v8.5684h-3.7686V217.914zM453.8628 217.8906h.336l8.2328 17.2813h-4.0083l-.9843-2.376h-6.8404l-.9843 2.376h-3.9844l8.2329-17.2813zm2.4004 12.0244l-2.2324-5.4238-2.2564 5.4238h4.4888zM470.6138 218.3701h5.3764c5.9048 0 9.4092 3.6485 9.4092 8.4014 0 4.752-3.5044 8.4004-9.4092 8.4004h-5.3764V218.37zm5.2085 13.5371c3.7446 0 5.6884-2.2314 5.6884-5.1601 0-2.9278-1.9438-5.1367-5.6884-5.1367h-1.3682v10.2968h1.3682zM494.1821 218.3701h11.353v3.2647h-7.5126v3.96h6.5527v3.0243h-6.5527v3.2881h7.7529v3.2647H494.182V218.37zM527.6621 218.3701h11.3525v3.2647h-7.5126v3.96h6.5527v3.0243h-6.5527v3.2881h7.7529v3.2647H527.662V218.37zM555.4063 217.8906h.3359l8.2324 17.2813h-4.0088l-.9834-2.376h-6.8408l-.9844 2.376h-3.9843l8.2333-17.2813zm2.3994 12.0244l-2.2315-5.4238-2.2568 5.4238h4.4883zM570.4053 231.956l2.4248-2.0165c1.3193 1.8242 2.8076 2.5917 4.5361 2.5917 1.8477 0 2.9043-.8632 2.9043-1.9433 0-1.2725-1.4883-1.8486-3.0244-2.4004-2.2803-.792-5.4248-1.6807-5.4248-5.3291 0-3.1201 2.3047-4.92 5.8086-4.92 2.6406 0 4.7764 1.0079 6.0488 2.712l-2.208 2.04c-1.0088-1.1513-2.3047-1.7275-3.7686-1.7275-1.4882 0-2.328.5996-2.328 1.6074 0 1.08.9843 1.5361 3.1923 2.3291 2.4961.8877 5.4961 1.92 5.4961 5.3281 0 3.2881-2.7598 5.3282-6.5762 5.3282-2.832 0-5.329-1.128-7.081-3.5996zM593.086 218.3701h3.8398v16.8018h-3.8399V218.37zM606.6943 218.3701h11.3526v3.2647h-7.5127v3.96h6.5527v3.0243h-6.5527v3.2881h7.753v3.2647h-11.5929V218.37zM627.4297 218.3701h5.832c4.2725 0 6.9131 2.5205 6.9131 5.8086 0 2.1846-1.1523 4.0088-3.1924 4.9922l3.792 6.001h-4.2959l-3.1445-5.208h-2.0645v5.208h-3.8398V218.37zm5.4482 8.5928c2.4961 0 3.3838-1.4395 3.3838-2.8076s-.912-2.7842-3.3838-2.7842h-1.6084v5.5918h1.6084zM965.0078 11.8018l5.7256.4272c4.0361.3008 6.4053 2.837 6.1738 5.9517-.1494 1.997-1.3017 3.5654-3.1494 4.375l2.8945 5.5551-4.6289-.3452-2.2343-4.645-1.4258-.106-.332 4.4537-4.168-.311 1.1445-15.3555zm4.6904 8.0913c2.2373.167 2.8848-1.1084 2.9551-2.0508.0703-.9434-.4033-2.2803-2.6201-2.4453l-1.0957-.0816-.336 4.4961 1.0967.0816zM978.501 12.2573h10.669v3.5196h-6.4903v2.8808h5.6103v3.212h-5.6103v2.2656h6.711v3.52H978.501v-15.398zM998.3525 11.8174h.3526l7.7861 15.8379h-4.3555l-.7255-1.7823h-5.7852l-.7256 1.7823h-4.334l7.7871-15.838zm1.7823 10.976l-1.6055-3.9374-1.629 3.9375h3.2345zM1007.6328 12.2573h4.1797v11.878h7.1504v3.52h-11.33v-15.398zM964.418 29.4072h4.1797v6.2466h5.2793v-6.2466h4.1777v15.3975h-4.1777v-5.6304h-5.2793v5.6304h-4.1797V29.4072zM979.2705 37.084c0-4.707 3.7627-8.1172 8.3809-8.1172 4.6416 0 8.3808 3.4102 8.3808 8.1172 0 4.7075-3.7392 8.0947-8.3808 8.0947-4.6182 0-8.3809-3.3872-8.3809-8.0947zm12.4951 0c0-2.5737-1.8261-4.355-4.1142-4.355-2.2647 0-4.1358 1.7813-4.1358 4.355 0 2.5508 1.8711 4.3335 4.1358 4.3335 2.288 0 4.1142-1.7827 4.1142-4.3335zM997.248 28.9668h.3291l7.6338 7.3032 7.6329-7.3032h.33v15.8379h-4.0918v-7.1045l-3.6953 3.6733h-.3515l-3.6954-3.6733v7.1045h-4.0918V28.9668zM1014.7383 29.4072h10.669v3.519h-6.4893v2.882h5.6093V39.02h-5.6093v2.2656h6.709v3.519h-10.8887V29.4073zM1026.413 41.747l2.5948-2.1777c1.2969 1.7388 2.6611 2.3536 4.0703 2.3536 1.4727 0 2.2657-.6812 2.2657-1.4517 0-.9233-1.211-1.3638-2.42-1.7378-2.0683-.6597-5.1484-1.4072-5.1484-5.0147 0-3.0585 2.2226-4.7519 5.6094-4.7519 2.6172 0 4.664 1.0122 5.918 2.6182l-2.3096 2.2207c-.9912-1.0108-2.1563-1.583-3.542-1.583-1.166 0-1.8701.396-1.8701 1.21 0 .748.5947 1.0331 2.6835 1.7367 2.332.7705 5.214 1.6729 5.214 4.9283 0 3.145-2.6622 5.081-6.2696 5.081-2.5957 0-5.0156-1.0122-6.796-3.4316z"/></svg>